<?xml version="1.0" encoding="UTF-8"?>
<!DOCTYPE svg PUBLIC "-//W3C//DTD SVG 1.1//EN" "http://www.w3.org/Graphics/SVG/1.1/DTD/svg11.dtd">
<svg version="1.1" xmlns="http://www.w3.org/2000/svg" xmlns:xlink="http://www.w3.org/1999/xlink" x="0" y="0" width="140" height="140" viewBox="0, 0, 140, 140">
  <g id="built">
    <path d="M0,0 L140,0 L140,140 L0,140 L0,0 z" fill="#3D7E9B"/>
    <g id="iphone">
      <g>
        <path d="M105.394,14.182 C109.33,14.182 113.029,15.713 115.812,18.493 C118.596,21.273 120.128,24.969 120.128,28.901 L120.128,112.258 L120.128,112.258 L120.128,140 L21.054,140 L21.054,113.255 L21.054,113.255 C21.054,113.255 21.054,28.901 21.054,28.901 C21.054,24.969 22.587,21.273 25.37,18.493 C28.153,15.713 31.853,14.182 35.788,14.182 L105.394,14.182 z" fill="#070808"/>
        <path d="M105.394,14.182 C109.33,14.182 113.029,15.713 115.812,18.493 C118.596,21.273 120.128,24.969 120.128,28.901 L120.128,112.258 L120.128,112.258 L120.128,140 L21.054,140 L21.054,113.255 L21.054,113.255 C21.054,113.255 21.054,28.901 21.054,28.901 C21.054,24.969 22.587,21.273 25.37,18.493 C28.153,15.713 31.853,14.182 35.788,14.182 L105.394,14.182 z" fill="#FFFFFF"/>
      </g>
      <path d="M113.144,44.141 L113.144,140 L28.412,140 L28.412,44.141 L113.144,44.141 z" fill="#ECF0F1"/>
      <path d="M79.526,32.315 C79.526,33.404 78.644,34.286 77.555,34.286 C77.555,34.286 63.102,34.286 63.102,34.286 C62.013,34.286 61.131,33.404 61.131,32.315 L61.131,32.315 C61.131,31.227 62.013,30.344 63.102,30.344 C63.102,30.344 77.555,30.344 77.555,30.344 C78.644,30.344 79.526,31.227 79.526,32.315 C79.526,32.315 79.526,32.315 79.526,32.315 z" fill="#CCCCCC" id="micro"/>
      <path d="M70.46,22.544 C71.476,22.544 72.299,23.367 72.299,24.383 C72.299,25.399 71.476,26.223 70.46,26.223 C69.444,26.223 68.62,25.399 68.62,24.383 C68.62,23.367 69.444,22.544 70.46,22.544 z" fill="#CCCCCC" id="cam"/>
      <g id="button">
        <g id="top">
          <path d="M87.309,13.377 C87.529,13.251 87.749,13.126 87.968,13 C87.968,13 102.796,13 102.796,13 C102.796,13 103.309,13.394 103.309,13.394 C103.309,13.394 103.309,14.182 103.309,14.182 C103.309,14.182 87.279,14.182 87.279,14.182 L87.279,13.394 L87.309,13.377 z" fill="#010005"/>
          <path d="M87.309,13.377 C87.529,13.251 87.749,13.126 87.968,13 C87.968,13 102.796,13 102.796,13 C102.796,13 103.309,13.394 103.309,13.394 C103.309,13.394 103.309,14.182 103.309,14.182 C103.309,14.182 87.279,14.182 87.279,14.182 L87.279,13.394 L87.309,13.377 z" fill="#FFFFFF"/>
        </g>
        <g id="left">
          <path d="M19.872,52.157 C19.872,52.157 19.872,43.353 19.872,43.353 C19.978,43.247 20.091,43.133 20.266,42.959 C20.266,42.959 21.054,42.959 21.054,42.959 C21.054,42.959 21.054,52.551 21.054,52.551 C21.054,52.551 20.266,52.551 20.266,52.551 L19.872,52.157 z" fill="#070808"/>
          <path d="M19.872,52.157 C19.872,52.157 19.872,43.353 19.872,43.353 C19.978,43.247 20.091,43.133 20.266,42.959 C20.266,42.959 21.054,42.959 21.054,42.959 C21.054,42.959 21.054,52.551 21.054,52.551 C21.054,52.551 20.266,52.551 20.266,52.551 L19.872,52.157 z" fill="#FFFFFF"/>
        </g>
        <g id="left">
          <path d="M20.15,70.042 C19.935,69.827 20.028,69.92 19.872,69.764 C19.872,69.764 19.872,63.194 19.872,63.194 C19.978,63.088 20.091,62.975 20.266,62.8 C20.266,62.8 21.054,62.8 21.054,62.8 C21.054,62.8 21.054,70.158 21.054,70.158 C21.054,70.158 20.266,70.158 20.266,70.158 L20.15,70.042 z" fill="#070808"/>
          <path d="M20.15,70.042 C19.935,69.827 20.028,69.92 19.872,69.764 C19.872,69.764 19.872,63.194 19.872,63.194 C19.978,63.088 20.091,62.975 20.266,62.8 C20.266,62.8 21.054,62.8 21.054,62.8 C21.054,62.8 21.054,70.158 21.054,70.158 C21.054,70.158 20.266,70.158 20.266,70.158 L20.15,70.042 z" fill="#FFFFFF"/>
        </g>
        <g id="left">
          <path d="M20.15,87.518 C19.935,87.303 20.028,87.396 19.872,87.24 C19.872,87.24 19.872,80.67 19.872,80.67 L20.266,80.276 L20.266,80.276 C20.266,80.276 21.054,80.276 21.054,80.276 C21.054,80.276 21.054,87.634 21.054,87.634 C21.054,87.634 20.266,87.634 20.266,87.634 L20.15,87.518 z" fill="#070808"/>
          <path d="M20.15,87.518 C19.935,87.303 20.028,87.396 19.872,87.24 C19.872,87.24 19.872,80.67 19.872,80.67 L20.266,80.276 L20.266,80.276 C20.266,80.276 21.054,80.276 21.054,80.276 C21.054,80.276 21.054,87.634 21.054,87.634 C21.054,87.634 20.266,87.634 20.266,87.634 L20.15,87.518 z" fill="#FFFFFF"/>
        </g>
      </g>
    </g>
    <g id="screen2">
      <g id="small_bubble">
        <path d="M100.317,64.01 C102.545,64.01 104.351,65.009 104.351,66.241 L104.35,93.575 C104.212,94.333 104.361,93.903 103.699,94.774 L104.35,96.678 L102.074,95.541 C100.866,95.822 101.453,95.743 100.317,95.806 L70.404,95.806 C68.177,95.806 66.371,94.807 66.371,93.575 L66.371,66.241 C66.371,65.009 68.177,64.01 70.404,64.01 L100.317,64.01 z" fill="#34495E"/>
        <text transform="matrix(1, 0, 0, 1, 85.897, 79.342)">
          <tspan x="-16.313" y="-7.5" font-family="ArialMT" font-size="3.5" fill="#FFFFFF">Got your email but </tspan>
          <tspan x="-16.313" y="-3.5" font-family="ArialMT" font-size="3.5" fill="#FFFFFF">can't answer the </tspan>
          <tspan x="-16.313" y="0.5" font-family="ArialMT" font-size="3.5" fill="#FFFFFF">phone right now. </tspan>
          <tspan x="-16.313" y="4.5" font-family="ArialMT" font-size="3.5" fill="#FFFFFF">Catch you later. </tspan>
          <tspan x="-16.313" y="8.5" font-family="ArialMT" font-size="3.5" fill="#FFFFFF">Send me an email </tspan>
          <tspan x="-16.313" y="12.5" font-family="ArialMT" font-size="3.5" fill="#FFFFFF">instead. </tspan>
        </text>
      </g>
      <g id="small_bubble2">
        <path d="M71.875,102.093 C74.103,102.093 75.908,103.092 75.908,104.325 L75.908,131.658 C75.908,132.89 74.103,133.889 71.875,133.889 L41.962,133.889 C40.741,133.821 41.414,133.905 39.954,133.566 L37.835,134.624 L38.484,132.729 C37.919,131.986 38.057,132.364 37.929,131.658 L37.929,104.324 C37.929,103.092 39.735,102.093 41.962,102.093 L71.875,102.093 z" fill="#3D7E9B"/>
        <text transform="matrix(1, 0, 0, 1, 57.455, 115.426)">
          <tspan x="-16.313" y="-5.5" font-family="ArialMT" font-size="3.5" fill="#FFFFFF">Ok. I've sent you an </tspan>
          <tspan x="-16.313" y="-1.5" font-family="ArialMT" font-size="3.5" fill="#FFFFFF">email. Just reply </tspan>
          <tspan x="-16.313" y="2.5" font-family="ArialMT" font-size="3.5" fill="#FFFFFF">whenever you get a </tspan>
          <tspan x="-16.313" y="6.5" font-family="ArialMT" font-size="3.5" fill="#FFFFFF">chance. Not </tspan>
          <tspan x="-16.313" y="10.5" font-family="ArialMT" font-size="3.5" fill="#FFFFFF">urgent. :)</tspan>
        </text>
      </g>
      <path d="M28.412,43.616 L113.144,43.616 L113.144,59.991 L28.412,59.991 L28.412,43.616 z" fill="#34495E"/>
      <path d="M103.217,57.265 C100.201,57.265 97.755,54.82 97.755,51.804 C97.755,48.787 100.201,46.342 103.217,46.342 C106.233,46.342 108.679,48.787 108.679,51.804 C108.679,54.82 106.233,57.265 103.217,57.265 z" fill="#E74C3C"/>
      <text transform="matrix(1, 0, 0, 1, 103.302, 52.314)">
        <tspan x="-3.429" y="2.5" font-family="FontAwesome" font-size="8" fill="#ECF0F1"></tspan>
      </text>
      <g>
        <text transform="matrix(1, 0, 0, 1, 36.88, 52.181)">
          <tspan x="-3.429" y="2.5" font-family="FontAwesome" font-size="8" fill="#ECF0F1"></tspan>
        </text>
        <path d="M40.308,51.824 C40.308,51.521 40.107,51.253 39.786,51.253 L36.643,51.253 L37.951,49.945 C38.058,49.838 38.121,49.69 38.121,49.539 C38.121,49.387 38.058,49.24 37.951,49.132 L37.616,48.802 C37.509,48.695 37.366,48.632 37.214,48.632 C37.063,48.632 36.915,48.695 36.808,48.802 L33.902,51.704 C33.799,51.811 33.737,51.958 33.737,52.11 C33.737,52.262 33.799,52.409 33.902,52.512 L36.808,55.423 C36.915,55.525 37.063,55.588 37.214,55.588 C37.366,55.588 37.514,55.525 37.616,55.423 L37.951,55.083 C38.058,54.981 38.121,54.833 38.121,54.681 C38.121,54.53 38.058,54.382 37.951,54.28 L36.643,52.967 L39.786,52.967 C40.107,52.967 40.308,52.699 40.308,52.396 z" fill="#ECF0F1"/>
      </g>
    </g>
  </g>
  <g id="Layer_2"/>
</svg>
