<?xml version="1.0" encoding="UTF-8"?>
<!DOCTYPE svg PUBLIC "-//W3C//DTD SVG 1.1//EN" "http://www.w3.org/Graphics/SVG/1.1/DTD/svg11.dtd">
<svg version="1.1" xmlns="http://www.w3.org/2000/svg" xmlns:xlink="http://www.w3.org/1999/xlink" x="0" y="0" width="140" height="140" viewBox="0, 0, 140, 140">
  <g id="Layer_1">
    <path d="M0,0 L140,0 L140,140 L0,140 L0,0 z" fill="#3D7E9B"/>
    <g id="paint4">
      <path d="M59.091,114.473 C38.72,114.473 22.206,97.959 22.206,77.588 C22.206,57.217 38.72,40.703 59.091,40.703 C79.462,40.703 95.976,57.217 95.976,77.588 C95.976,97.959 79.462,114.473 59.091,114.473 z" fill="#000000" opacity="0.25"/>
      <g>
        <path d="M53.362,110.602 C33.172,110.602 16.806,94.235 16.806,74.046 C16.806,53.856 33.172,37.489 53.362,37.489 C73.551,37.489 89.918,53.856 89.918,74.046 C89.918,94.235 73.551,110.602 53.362,110.602 z" fill="#ECF0F1"/>
        <path d="M53.362,110.602 C33.172,110.602 16.806,94.235 16.806,74.046 C16.806,53.856 33.172,37.489 53.362,37.489 C73.551,37.489 89.918,53.856 89.918,74.046 C89.918,94.235 73.551,110.602 53.362,110.602 z" fill-opacity="0" stroke="#000000" stroke-width="2"/>
      </g>
      <g>
        <path d="M53.426,107.583 C34.869,107.583 19.825,92.539 19.825,73.982 C19.825,55.424 34.869,40.381 53.426,40.381 C71.983,40.381 87.027,55.424 87.027,73.982 C87.027,92.539 71.983,107.583 53.426,107.583 z" fill="#34495E"/>
        <path d="M53.426,107.583 C34.869,107.583 19.825,92.539 19.825,73.982 C19.825,55.424 34.869,40.381 53.426,40.381 C71.983,40.381 87.027,55.424 87.027,73.982 C87.027,92.539 71.983,107.583 53.426,107.583 z" fill-opacity="0" stroke="#000000" stroke-width="0.5"/>
      </g>
      <g>
        <path d="M53.362,105.527 C35.975,105.527 21.881,91.432 21.881,74.046 C21.881,56.659 35.975,42.565 53.362,42.565 C70.748,42.565 84.843,56.659 84.843,74.046 C84.843,91.432 70.748,105.527 53.362,105.527 z" fill="#34495E"/>
        <path d="M53.362,105.527 C35.975,105.527 21.881,91.432 21.881,74.046 C21.881,56.659 35.975,42.565 53.362,42.565 C70.748,42.565 84.843,56.659 84.843,74.046 C84.843,91.432 70.748,105.527 53.362,105.527 z" fill-opacity="0" stroke="#000000" stroke-width="2"/>
      </g>
      <path d="M54.615,43.043 C61.224,42.945 83.447,49.533 83.914,73.813 C84.343,96.108 61.618,105.577 55.01,104.295 C55.01,104.295 66.213,97.547 71.975,89.451 C75.432,84.593 76.351,79.842 76.413,74.779 C76.482,69.227 74.924,62.549 70.865,57.025 C65.145,49.237 54.615,43.043 54.615,43.043 z" fill="#FCFEFF" opacity="0.34"/>
      <path d="M51.792,69.422 C58.882,70.501 56.108,75.834 52.039,76.111" fill-opacity="0" stroke="#F3F3F3" stroke-width="1" stroke-linecap="round" opacity="0.4"/>
      <path d="M55.115,100.389 C54.951,100.389 25.788,97.821 25.952,73.758 C26.117,49.695 55.115,48.442 55.115,48.442" fill-opacity="0" stroke="#F3F3F3" stroke-width="1" opacity="0.4"/>
    </g>
    <g id="brush">
      <g>
        <path d="M45.31,92.52 C45.865,93.137 49.228,96.2 49.228,96.2 C50.211,97.236 52.616,99.458 53.077,100.725 C52.954,103.863 48.516,104.264 48.485,104.726 C48.052,111.211 36.686,119.842 31.754,123.195 C26.822,126.549 17.168,127.073 17.168,127.073 L16.305,127.011 L16.09,126.487 C16.09,126.487 18.222,117.206 21.729,112.382 C25.236,107.558 33.817,96.548 40.312,96.32 C40.775,96.304 41.527,92.023 44.667,91.998 z" fill="#34495E"/>
        <path d="M45.31,92.52 C45.865,93.137 49.228,96.2 49.228,96.2 C50.211,97.236 52.616,99.458 53.077,100.725 C52.954,103.863 48.516,104.264 48.485,104.726 C48.052,111.211 36.686,119.842 31.754,123.195 C26.822,126.549 17.168,127.073 17.168,127.073 L16.305,127.011 L16.09,126.487 C16.09,126.487 18.222,117.206 21.729,112.382 C25.236,107.558 33.817,96.548 40.312,96.32 C40.775,96.304 41.527,92.023 44.667,91.998 z" fill-opacity="0" stroke="#000000" stroke-width="2"/>
      </g>
      <g>
        <path d="M139.167,-0.073 L62.324,71.19 L74.232,82.328 L139.167,10.777" fill="#839495"/>
        <path d="M139.167,-0.073 L62.324,71.19 L74.232,82.328 L139.167,10.777" fill-opacity="0" stroke="#000000" stroke-width="2"/>
      </g>
      <g>
        <path d="M62.324,71.19 L53.694,80.289 L65.417,91.509 L74.232,82.328 L62.324,71.19 z" fill="#E74C3C"/>
        <path d="M62.324,71.19 L53.694,80.289 L65.417,91.509 L74.232,82.328 L62.324,71.19 z" fill-opacity="0" stroke="#000000" stroke-width="2"/>
      </g>
      <g>
        <path d="M44.149,91.534 C44.149,91.534 44.56,87.342 47.19,84.383 C49.82,81.424 53.694,80.289 53.694,80.289 L65.355,91.595 C65.355,91.595 63.989,96.311 61.246,98.685 C58.502,101.058 53.725,101.311 53.725,101.311 L44.149,91.534 z" fill="#E74C3C"/>
        <path d="M44.149,91.534 C44.149,91.534 44.56,87.342 47.19,84.383 C49.82,81.424 53.694,80.289 53.694,80.289 L65.355,91.595 C65.355,91.595 63.989,96.311 61.246,98.685 C58.502,101.058 53.725,101.311 53.725,101.311 L44.149,91.534 z" fill-opacity="0" stroke="#000000" stroke-width="2"/>
      </g>
      <g>
        <path d="M23.086,112.062 C23.21,112 26.107,114.59 26.107,114.59 C26.107,114.59 30.484,109.473 31.779,109.103 C33.073,108.733 34.738,111.137 34.553,112 C34.368,112.863 28.573,119.028 28.573,119.028 C28.573,119.028 30.607,123.528 30.422,123.713 C27.031,127.104 16.567,126.626 16.567,126.626 C16.567,126.626 19.917,113.647 23.086,112.062 z" fill="#E74C3C"/>
        <path d="M23.086,112.062 C23.21,112 26.107,114.59 26.107,114.59 C26.107,114.59 30.484,109.473 31.779,109.103 C33.073,108.733 34.738,111.137 34.553,112 C34.368,112.863 28.573,119.028 28.573,119.028 C28.573,119.028 30.607,123.528 30.422,123.713 C27.031,127.104 16.567,126.626 16.567,126.626 C16.567,126.626 19.917,113.647 23.086,112.062 z" fill-opacity="0" stroke="#000000" stroke-width="2"/>
      </g>
      <path d="M94.452,46.655 L111.878,30.052" fill-opacity="0" stroke="#000000" stroke-width="1" stroke-linecap="round"/>
      <path d="M65.848,72.793 L77.027,62.272" fill-opacity="0" stroke="#000000" stroke-width="1" stroke-linecap="round"/>
      <path d="M70.123,77.232 L78.342,68.848" fill-opacity="0" stroke="#000000" stroke-width="1" stroke-linecap="round"/>
      <path d="M72.424,79.698 L75.054,77.232" fill-opacity="0" stroke="#000000" stroke-width="1" stroke-linecap="round"/>
      <path d="M60.691,74.088 L72.424,84.999" fill-opacity="0" stroke="#000000" stroke-width="1" stroke-linecap="round"/>
      <path d="M61.307,73.009 L73.041,83.92" fill-opacity="0" stroke="#000000" stroke-width="1" stroke-linecap="round"/>
      <path d="M59.129,76.06 L70.862,86.972" fill-opacity="0" stroke="#000000" stroke-width="1" stroke-linecap="round"/>
      <path d="M60.239,75.475 L71.417,85.801" fill-opacity="0" stroke="#000000" stroke-width="1" stroke-linecap="round"/>
      <path d="M57.218,77.632 L68.951,88.544" fill-opacity="0" stroke="#000000" stroke-width="1" stroke-linecap="round"/>
      <path d="M57.834,76.554 L69.568,87.465" fill-opacity="0" stroke="#000000" stroke-width="1" stroke-linecap="round"/>
      <path d="M55.656,79.605 L67.39,90.517" fill-opacity="0" stroke="#000000" stroke-width="1" stroke-linecap="round"/>
      <path d="M56.273,78.526 L68.006,89.438" fill-opacity="0" stroke="#000000" stroke-width="1" stroke-linecap="round"/>
      <path d="M51.567,81.455 L55.266,85.184" fill-opacity="0" stroke="#000000" stroke-width="1" stroke-linecap="round"/>
      <path d="M57.362,87.311 L63.711,93.63" fill-opacity="0" stroke="#000000" stroke-width="1" stroke-linecap="round"/>
      <path d="M57.054,90.64 L62.633,96.034" fill-opacity="0" stroke="#000000" stroke-width="1" stroke-linecap="round"/>
      <path d="M55.451,88.76 L49.81,82.934" fill-opacity="0" stroke="#000000" stroke-width="1" stroke-linecap="round"/>
      <path d="M48.454,84.383 L57.208,92.982" fill-opacity="0" stroke="#000000" stroke-width="1" stroke-linecap="round"/>
      <path d="M60.105,98.592 L53.231,91.565" fill-opacity="0" stroke="#000000" stroke-width="1" stroke-linecap="round"/>
      <path d="M45.926,86.818 L57.362,98.192" fill-opacity="0" stroke="#000000" stroke-width="1" stroke-linecap="round"/>
      <path d="M57.208,100.041 L50.735,93.938" fill-opacity="0" stroke="#000000" stroke-width="1" stroke-linecap="round"/>
      <path d="M45.156,90.085 L47.961,93.137" fill-opacity="0" stroke="#000000" stroke-width="1" stroke-linecap="round"/>
      <path d="M51.29,96.558 L55.266,100.781" fill-opacity="0" stroke="#000000" stroke-width="1" stroke-linecap="round"/>
      <path d="M22.233,116.013 L21.873,116.451 L21.141,117.444 L20.474,118.509 L19.902,119.613 L19.435,120.749 L19.077,121.912 L18.833,123.101 L18.707,124.312 L18.69,124.939 L18.69,124.939 C18.681,125.293 19.027,125.374 19.464,125.12 C19.9,124.865 20.261,124.371 20.27,124.016 L20.282,123.475 L20.388,122.396 L20.592,121.364 L20.887,120.378 L21.263,119.441 L21.713,118.551 L22.233,117.705 L22.839,116.873 L23.2,116.434 C23.545,116.013 23.609,115.577 23.342,115.461 C23.075,115.345 22.579,115.592 22.233,116.013 L22.233,116.013" fill="#FFFEFE"/>
    </g>
    <g id="drop3">
      <g>
        <path d="M61.029,115.833 C65.132,115.833 68.457,119.079 68.457,123.082 C68.404,124.109 68.469,123.581 68.243,124.663 C70.245,124.859 71.318,126.648 71.5,128.452 C71.5,130.577 69.777,132.3 67.652,132.3 C66.347,132.26 65.234,131.67 64.461,130.603 C64.261,130.328 64.197,129.977 64.066,129.664 C63.127,130.164 62.072,130.28 61.029,130.331 C56.927,130.331 53.601,127.086 53.601,123.082 C53.601,119.079 56.927,115.833 61.029,115.833 z" fill="#E74C3C"/>
        <path d="M61.029,115.833 C65.132,115.833 68.457,119.079 68.457,123.082 C68.404,124.109 68.469,123.581 68.243,124.663 C70.245,124.859 71.318,126.648 71.5,128.452 C71.5,130.577 69.777,132.3 67.652,132.3 C66.347,132.26 65.234,131.67 64.461,130.603 C64.261,130.328 64.197,129.977 64.066,129.664 C63.127,130.164 62.072,130.28 61.029,130.331 C56.927,130.331 53.601,127.086 53.601,123.082 C53.601,119.079 56.927,115.833 61.029,115.833 z" fill-opacity="0" stroke="#000000" stroke-width="2"/>
      </g>
      <path d="M62.394,118.645 L62.586,118.652 L62.921,118.699 L63.361,118.845 L63.857,119.164 L64.27,119.6 L64.626,120.13 L64.948,120.728 L65.416,121.689 L65.754,122.331 L65.754,122.331 C65.821,122.457 66.043,122.415 66.251,122.237 C66.459,122.059 66.573,121.812 66.507,121.686 C66.507,121.686 66.507,121.686 66.507,121.686 L66.173,121.053 L65.7,120.081 L65.364,119.46 L64.981,118.896 L64.52,118.422 L63.959,118.073 L63.457,117.913 L63.079,117.862 L62.887,117.855 C62.887,117.855 62.887,117.855 62.887,117.855 C62.716,117.848 62.467,118.02 62.331,118.238 C62.195,118.456 62.223,118.638 62.394,118.645 L62.394,118.645" fill="#FFFFFF"/>
    </g>
  </g>
</svg>
