<?xml version="1.0" encoding="UTF-8"?>
<!DOCTYPE svg PUBLIC "-//W3C//DTD SVG 1.1//EN" "http://www.w3.org/Graphics/SVG/1.1/DTD/svg11.dtd">
<svg version="1.1" xmlns="http://www.w3.org/2000/svg" xmlns:xlink="http://www.w3.org/1999/xlink" x="0" y="0" width="500" height="500" viewBox="0, 0, 500, 500">
  <g id="build">
    <path d="M0,0 L500,0 L500,500 L0,500 L0,0 z" fill="#3D7E9B" id="background"/>
    <g id="iphone">
      <g id="body">
        <path d="M341.208,240.919 C341.208,240.919 341.208,414.72 341.208,414.72 C341.208,421.874 338.419,428.599 333.355,433.658 C328.291,438.715 321.559,441.5 314.399,441.5 C314.399,441.5 187.753,441.5 187.753,441.5 C180.593,441.5 173.861,438.715 168.797,433.658 C163.733,428.599 160.944,421.874 160.944,414.72 C160.944,414.72 160.944,240.919 160.944,240.919 L341.208,240.919 z M314.399,60.652 C321.559,60.652 328.291,63.437 333.354,68.494 C338.419,73.552 341.208,80.278 341.208,87.432 L341.208,240.912 L160.944,240.912 C160.944,240.912 160.944,87.432 160.944,87.432 C160.944,80.278 163.733,73.552 168.797,68.494 C173.861,63.437 180.593,60.652 187.753,60.652 L314.399,60.652 z" fill="#070808"/>
        <path d="M341.208,240.919 C341.208,240.919 341.208,414.72 341.208,414.72 C341.208,421.874 338.419,428.599 333.355,433.658 C328.291,438.715 321.559,441.5 314.399,441.5 C314.399,441.5 187.753,441.5 187.753,441.5 C180.593,441.5 173.861,438.715 168.797,433.658 C163.733,428.599 160.944,421.874 160.944,414.72 C160.944,414.72 160.944,240.919 160.944,240.919 L341.208,240.919 z M314.399,60.652 C321.559,60.652 328.291,63.437 333.354,68.494 C338.419,73.552 341.208,80.278 341.208,87.432 L341.208,240.912 L160.944,240.912 C160.944,240.912 160.944,87.432 160.944,87.432 C160.944,80.278 163.733,73.552 168.797,68.494 C173.861,63.437 180.593,60.652 187.753,60.652 L314.399,60.652 z" fill="#FFFFFF"/>
      </g>
      <path d="M250.956,397.271 C259.869,397.271 267.094,404.496 267.094,413.409 C267.094,422.321 259.869,429.546 250.956,429.546 C242.044,429.546 234.819,422.321 234.819,413.409 C234.819,404.496 242.044,397.271 250.956,397.271 z" fill="#CCCCCC" id="border"/>
      <path d="M250.956,398.945 C258.945,398.945 265.421,405.42 265.421,413.409 C265.421,421.397 258.945,427.873 250.956,427.873 C242.968,427.873 236.492,421.397 236.492,413.409 C236.492,405.42 242.968,398.945 250.956,398.945 z" fill="#FFFFFF" id="button"/>
      <path d="M267.333,93.644 C267.333,95.625 265.727,97.23 263.747,97.23 C263.747,97.23 237.449,97.23 237.449,97.23 C235.468,97.23 233.862,95.625 233.862,93.644 L233.862,93.644 C233.862,91.664 235.468,90.058 237.449,90.058 C237.449,90.058 263.747,90.058 263.747,90.058 C265.727,90.058 267.333,91.664 267.333,93.644 C267.333,93.644 267.333,93.644 267.333,93.644 z" fill="#CCCCCC" id="micro"/>
      <path d="M250.837,75.865 C252.685,75.865 254.184,77.363 254.184,79.212 C254.184,81.06 252.685,82.559 250.837,82.559 C248.988,82.559 247.49,81.06 247.49,79.212 C247.49,77.363 248.988,75.865 250.837,75.865 z" fill="#CCCCCC" id="cam"/>
      <g id="button">
        <g id="top">
          <path d="M281.492,59.186 C281.893,58.958 282.293,58.729 282.693,58.5 C282.693,58.5 309.672,58.5 309.672,58.5 C309.672,58.5 310.606,59.217 310.606,59.217 C310.606,59.217 310.606,60.652 310.606,60.652 C310.606,60.652 281.439,60.652 281.439,60.652 L281.439,59.217 L281.492,59.186 z" fill="#010005"/>
          <path d="M281.492,59.186 C281.893,58.958 282.293,58.729 282.693,58.5 C282.693,58.5 309.672,58.5 309.672,58.5 C309.672,58.5 310.606,59.217 310.606,59.217 C310.606,59.217 310.606,60.652 310.606,60.652 C310.606,60.652 281.439,60.652 281.439,60.652 L281.439,59.217 L281.492,59.186 z" fill="#FFFFFF"/>
        </g>
        <g id="left">
          <path d="M158.792,129.745 C158.792,129.745 158.792,113.727 158.792,113.727 C158.985,113.534 159.192,113.327 159.51,113.009 C159.51,113.009 160.944,113.009 160.944,113.009 C160.944,113.009 160.944,130.462 160.944,130.462 C160.944,130.462 159.51,130.462 159.51,130.462 L158.792,129.745 z" fill="#070808"/>
          <path d="M158.792,129.745 C158.792,129.745 158.792,113.727 158.792,113.727 C158.985,113.534 159.192,113.327 159.51,113.009 C159.51,113.009 160.944,113.009 160.944,113.009 C160.944,113.009 160.944,130.462 160.944,130.462 C160.944,130.462 159.51,130.462 159.51,130.462 L158.792,129.745 z" fill="#FFFFFF"/>
        </g>
        <g id="left">
          <path d="M159.299,162.287 C158.908,161.896 159.076,162.065 158.792,161.781 C158.792,161.781 158.792,149.827 158.792,149.827 C158.985,149.634 159.192,149.428 159.51,149.11 C159.51,149.11 160.944,149.11 160.944,149.11 C160.944,149.11 160.944,162.498 160.944,162.498 C160.944,162.498 159.51,162.498 159.51,162.498 L159.299,162.287 z" fill="#070808"/>
          <path d="M159.299,162.287 C158.908,161.896 159.076,162.065 158.792,161.781 C158.792,161.781 158.792,149.827 158.792,149.827 C158.985,149.634 159.192,149.428 159.51,149.11 C159.51,149.11 160.944,149.11 160.944,149.11 C160.944,149.11 160.944,162.498 160.944,162.498 C160.944,162.498 159.51,162.498 159.51,162.498 L159.299,162.287 z" fill="#FFFFFF"/>
        </g>
        <g id="left">
          <path d="M159.299,194.084 C158.908,193.693 159.076,193.862 158.792,193.578 C158.792,193.578 158.792,181.624 158.792,181.624 L159.51,180.907 L159.51,180.907 C159.51,180.907 160.944,180.907 160.944,180.907 C160.944,180.907 160.944,194.295 160.944,194.295 C160.944,194.295 159.51,194.295 159.51,194.295 L159.299,194.084 z" fill="#070808"/>
          <path d="M159.299,194.084 C158.908,193.693 159.076,193.862 158.792,193.578 C158.792,193.578 158.792,181.624 158.792,181.624 L159.51,180.907 L159.51,180.907 C159.51,180.907 160.944,180.907 160.944,180.907 C160.944,180.907 160.944,194.295 160.944,194.295 C160.944,194.295 159.51,194.295 159.51,194.295 L159.299,194.084 z" fill="#FFFFFF"/>
        </g>
      </g>
    </g>
    <g id="screen3">
      <path d="M500,114.205 L500,385.795 L373.491,385.795 L373.491,114.205 L500,114.205 z" fill="#ECF0F1"/>
      <g>
        <text transform="matrix(1, 0, 0, 1, 388.625, 129.54)">
          <tspan x="-6.5" y="4.5" font-family="FontAwesome" font-size="14" fill="#ECF0F1"></tspan>
        </text>
        <path d="M394.125,129.04 C394.125,128.509 393.773,128.04 393.211,128.04 L387.711,128.04 L390,125.751 C390.187,125.563 390.297,125.305 390.297,125.04 C390.297,124.774 390.187,124.516 390,124.329 L389.414,123.751 C389.227,123.563 388.977,123.454 388.711,123.454 C388.445,123.454 388.187,123.563 388,123.751 L382.914,128.829 C382.734,129.016 382.625,129.274 382.625,129.54 C382.625,129.805 382.734,130.063 382.914,130.243 L388,135.337 C388.187,135.516 388.445,135.626 388.711,135.626 C388.977,135.626 389.234,135.516 389.414,135.337 L390,134.743 C390.187,134.563 390.297,134.305 390.297,134.04 C390.297,133.774 390.187,133.516 390,133.337 L387.711,131.04 L393.211,131.04 C393.773,131.04 394.125,130.571 394.125,130.04 z" fill="#ECF0F1"/>
        <path d="M394.125,129.04 C394.125,128.509 393.773,128.04 393.211,128.04 L387.711,128.04 L390,125.751 C390.187,125.563 390.297,125.305 390.297,125.04 C390.297,124.774 390.187,124.516 390,124.329 L389.414,123.751 C389.227,123.563 388.977,123.454 388.711,123.454 C388.445,123.454 388.187,123.563 388,123.751 L382.914,128.829 C382.734,129.016 382.625,129.274 382.625,129.54 C382.625,129.805 382.734,130.063 382.914,130.243 L388,135.337 C388.187,135.516 388.445,135.626 388.711,135.626 C388.977,135.626 389.234,135.516 389.414,135.337 L390,134.743 C390.187,134.563 390.297,134.305 390.297,134.04 C390.297,133.774 390.187,133.516 390,133.337 L387.711,131.04 L393.211,131.04 C393.773,131.04 394.125,130.571 394.125,130.04 z" fill-opacity="0" stroke="#CCCCCC" stroke-width="0.5"/>
      </g>
      <path d="M409.841,347.5 L437.341,347.5 C441.76,347.5 445.341,351.082 445.341,355.5 L445.341,355.5 C445.341,359.918 441.76,363.5 437.341,363.5 L409.841,363.5 C405.423,363.5 401.841,359.918 401.841,355.5 L401.841,355.5 C401.841,351.082 405.423,347.5 409.841,347.5 z" fill="#3D7E9B"/>
      <path d="M463.411,347.5 L490.911,347.5 C495.329,347.5 498.911,351.082 498.911,355.5 L498.911,355.5 C498.911,359.918 495.329,363.5 490.911,363.5 L463.411,363.5 C458.992,363.5 455.411,359.918 455.411,355.5 L455.411,355.5 C455.411,351.082 458.992,347.5 463.411,347.5 z" fill="#E74C3C"/>
      <text transform="matrix(1, 0, 0, 1, 424.103, 355.625)">
        <tspan x="-13.283" y="3" font-family="ArialMT" font-size="10" fill="#FFFFFF">Reply</tspan>
      </text>
      <text transform="matrix(1, 0, 0, 1, 478.047, 356.125)">
        <tspan x="-17.998" y="3" font-family="ArialMT" font-size="10" fill="#FFFFFF">Dismiss</tspan>
      </text>
      <path d="M373.491,114.205 L500,114.205 L500,144 L373.491,144 L373.491,114.205 z" fill="#34495E"/>
      <path d="M500,125.571 L500,133.509 C499.338,132.287 499.194,130.902 499.125,129.54 C499.081,128.15 499.467,126.834 500,125.571 z" fill="#E74C3C"/>
      <path d="M490,164.978 L490,164.978 L494.916,164.978 C496.794,164.923 498.313,165.445 500,166.158 L500,334.808 C498.451,335.675 496.65,335.838 494.916,335.978 L490,335.978 L490,335.978 L405.916,335.978 C399.289,335.978 393.916,330.606 393.916,323.978 L393.916,176.978 C393.916,170.351 399.289,164.978 405.916,164.978 L490,164.978 z" fill="#34495E"/>
      <g>
        <text transform="matrix(1, 0, 0, 1, 450.182, 191)">
          <tspan x="-48.341" y="4.5" font-family="ArialMT" font-size="14" fill="#FFFFFF">Thanks. BTW if </tspan>
        </text>
        <text transform="matrix(1, 0, 0, 1, 450.763, 207)">
          <tspan x="-48.922" y="4.5" font-family="ArialMT" font-size="14" fill="#FFFFFF">you're available </tspan>
        </text>
        <text transform="matrix(1, 0, 0, 1, 440.082, 223)">
          <tspan x="-38.241" y="4.5" font-family="ArialMT" font-size="14" fill="#FFFFFF">later we can </tspan>
        </text>
        <text transform="matrix(1, 0, 0, 1, 443.582, 239)">
          <tspan x="-41.741" y="4.5" font-family="ArialMT" font-size="14" fill="#FFFFFF">always go for </tspan>
        </text>
        <text transform="matrix(1, 0, 0, 1, 423.228, 255)">
          <tspan x="-21.387" y="4.5" font-family="ArialMT" font-size="14" fill="#FFFFFF">coffee.</tspan>
        </text>
      </g>
    </g>
    <g id="screen2">
      <path d="M174.333,115.161 L328.5,115.161 L328.5,386.752 L174.333,386.752 z" fill="#ECF0F1"/>
      <path d="M174.333,356.956 L328.5,356.956 L328.5,386.752 L174.333,386.752 L174.333,356.956 z" fill="#34495E"/>
      <g id="small_bubble">
        <path d="M305.162,151.312 C309.215,151.312 312.5,153.129 312.5,155.371 L312.5,205.104 C312.248,206.484 312.519,205.701 311.314,207.285 L312.5,210.75 L308.359,208.681 C306.16,209.193 307.228,209.049 305.162,209.164 L250.736,209.164 C246.683,209.164 243.397,207.346 243.397,205.104 L243.397,155.371 C243.397,153.129 246.683,151.312 250.736,151.312 L305.162,151.312 z" fill="#34495E"/>
        <g>
          <text transform="matrix(1, 0, 0, 1, 278.34, 163.826)">
            <tspan x="-29.096" y="2" font-family="ArialMT" font-size="7" fill="#FFFFFF">Got your email but </tspan>
          </text>
          <text transform="matrix(1, 0, 0, 1, 275.121, 170.826)">
            <tspan x="-25.877" y="2" font-family="ArialMT" font-size="7" fill="#FFFFFF">can't answer the </tspan>
          </text>
          <text transform="matrix(1, 0, 0, 1, 275.43, 177.826)">
            <tspan x="-26.186" y="2" font-family="ArialMT" font-size="7" fill="#FFFFFF">phone right now. </tspan>
          </text>
          <text transform="matrix(1, 0, 0, 1, 274.063, 184.826)">
            <tspan x="-24.819" y="2" font-family="ArialMT" font-size="7" fill="#FFFFFF">Catch you later. </tspan>
          </text>
          <text transform="matrix(1, 0, 0, 1, 277.954, 191.826)">
            <tspan x="-28.71" y="2" font-family="ArialMT" font-size="7" fill="#FFFFFF">Send me an email </tspan>
          </text>
          <text transform="matrix(1, 0, 0, 1, 262.003, 198.826)">
            <tspan x="-12.759" y="2" font-family="ArialMT" font-size="7" fill="#FFFFFF">instead. </tspan>
          </text>
        </g>
      </g>
      <g id="small_bubble2">
        <path d="M253.412,220.603 C257.465,220.603 260.75,222.421 260.75,224.663 L260.75,274.396 C260.75,276.638 257.465,278.455 253.412,278.455 L198.986,278.455 C196.763,278.331 197.988,278.485 195.331,277.866 L191.477,279.792 L192.657,276.345 C191.628,274.993 191.881,275.68 191.647,274.396 L191.647,224.663 C191.647,222.421 194.933,220.603 198.986,220.603 L253.412,220.603 z" fill="#3D7E9B"/>
        <g>
          <text transform="matrix(1, 0, 0, 1, 223.952, 233.118)">
            <tspan x="-26.458" y="2" font-family="ArialMT" font-size="7" fill="#FFFFFF">Ok. I've sent you </tspan>
          </text>
          <text transform="matrix(1, 0, 0, 1, 219.587, 240.118)">
            <tspan x="-22.093" y="2" font-family="ArialMT" font-size="7" fill="#FFFFFF">an email. Just </tspan>
          </text>
          <text transform="matrix(1, 0, 0, 1, 221.728, 247.118)">
            <tspan x="-24.234" y="2" font-family="ArialMT" font-size="7" fill="#FFFFFF">reply whenever </tspan>
          </text>
          <text transform="matrix(1, 0, 0, 1, 225.625, 254.118)">
            <tspan x="-28.131" y="2" font-family="ArialMT" font-size="7" fill="#FFFFFF">you get a chance. </tspan>
          </text>
          <text transform="matrix(1, 0, 0, 1, 218.42, 261.118)">
            <tspan x="-20.926" y="2" font-family="ArialMT" font-size="7" fill="#FFFFFF">Not urgent. :)</tspan>
          </text>
        </g>
      </g>
      <g id="small_bubble3">
        <path d="M307.412,291.978 C311.465,291.978 314.75,293.796 314.75,296.038 L314.75,345.771 C314.499,347.15 314.769,346.368 313.564,347.952 L314.75,351.417 L310.609,349.348 C308.41,349.86 309.478,349.715 307.412,349.83 L252.986,349.83 C248.933,349.83 245.647,348.013 245.647,345.771 L245.647,296.038 C245.647,293.796 248.933,291.978 252.986,291.978 L307.412,291.978 z" fill="#34495E"/>
        <g>
          <text transform="matrix(1, 0, 0, 1, 275.915, 304.493)">
            <tspan x="-24.421" y="2" font-family="ArialMT" font-size="7" fill="#FFFFFF">Thanks. BTW if </tspan>
          </text>
          <text transform="matrix(1, 0, 0, 1, 276.205, 311.493)">
            <tspan x="-24.711" y="2" font-family="ArialMT" font-size="7" fill="#FFFFFF">you're available </tspan>
          </text>
          <text transform="matrix(1, 0, 0, 1, 270.865, 318.493)">
            <tspan x="-19.371" y="2" font-family="ArialMT" font-size="7" fill="#FFFFFF">later we can </tspan>
          </text>
          <text transform="matrix(1, 0, 0, 1, 272.615, 325.493)">
            <tspan x="-21.121" y="2" font-family="ArialMT" font-size="7" fill="#FFFFFF">always go for </tspan>
          </text>
          <text transform="matrix(1, 0, 0, 1, 262.438, 332.493)">
            <tspan x="-10.944" y="2" font-family="ArialMT" font-size="7" fill="#FFFFFF">coffee. </tspan>
          </text>
        </g>
      </g>
      <path d="M174.333,114.205 L328.5,114.205 L328.5,144 L174.333,144 L174.333,114.205 z" fill="#34495E"/>
      <path d="M224.286,371.033 C224.286,367.477 220.258,364.605 215.286,364.605 C210.314,364.605 206.286,367.488 206.286,371.033 C206.286,373.072 207.612,374.89 209.681,376.066 C209.209,377.743 208.486,378.346 207.853,379.059 C207.702,379.24 207.531,379.39 207.581,379.642 C207.581,379.642 207.581,379.642 207.581,379.652 C207.632,379.893 207.843,380.053 208.064,380.033 C208.455,379.983 208.847,379.913 209.209,379.812 C210.946,379.37 212.513,378.547 213.829,377.382 C214.301,377.432 214.794,377.462 215.286,377.462 C220.258,377.462 224.286,374.589 224.286,371.033 z M251.607,370.39 C251.607,370.571 251.467,370.712 251.286,370.712 C250.753,370.712 250.321,371.144 250.321,371.676 C250.321,371.857 250.181,371.998 250,371.998 C249.819,371.998 249.679,371.857 249.679,371.676 C249.679,370.792 250.402,370.069 251.286,370.069 C251.467,370.069 251.607,370.21 251.607,370.39 z M253.857,371.696 C253.857,370.28 252.702,369.125 251.286,369.125 C249.869,369.125 248.714,370.28 248.714,371.696 C248.714,373.113 249.869,374.268 251.286,374.268 C252.702,374.268 253.857,373.113 253.857,371.696 z M243.571,377.462 L243.571,376.176 L259,376.176 L259,377.462 z M255.143,371.696 C255.143,373.826 253.415,375.553 251.286,375.553 C249.156,375.553 247.429,373.826 247.429,371.696 C247.429,369.567 249.156,367.839 251.286,367.839 C253.415,367.839 255.143,369.567 255.143,371.696 z M244.857,365.248 L244.857,363.962 L248.714,363.962 L248.714,365.248 z M243.571,367.176 L243.571,365.89 L250.04,365.89 L250.683,364.605 L259,364.605 L259,365.991 L259,367.176 z M260.286,364.605 C260.286,363.892 259.713,363.319 259,363.319 L243.571,363.319 C242.858,363.319 242.286,363.892 242.286,364.605 L242.286,377.462 C242.286,378.175 242.858,378.748 243.571,378.748 L259,378.748 C259.713,378.748 260.286,378.175 260.286,377.462 z M293.031,365.85 L289.897,362.716 C289.526,362.345 288.782,362.033 288.25,362.033 L279.25,362.033 C278.718,362.033 278.286,362.465 278.286,362.998 L278.286,379.069 C278.286,379.601 278.718,380.033 279.25,380.033 L292.75,380.033 C293.282,380.033 293.714,379.601 293.714,379.069 L293.714,367.498 C293.714,366.965 293.403,366.222 293.031,365.85 z M288.571,363.399 C288.742,363.46 288.913,363.55 288.983,363.62 L292.127,366.764 C292.198,366.835 292.288,367.005 292.348,367.176 L288.571,367.176 z M292.429,378.748 L279.571,378.748 L279.571,363.319 L287.286,363.319 L287.286,367.498 C287.286,368.03 287.718,368.462 288.25,368.462 L292.429,368.462 z M291.143,374.248 L287.929,371.033 L284.071,374.89 L282.786,373.605 L280.857,375.533 L280.857,377.462 L291.143,377.462 z M282.786,372.319 C283.85,372.319 284.714,371.455 284.714,370.39 C284.714,369.326 283.85,368.462 282.786,368.462 C281.721,368.462 280.857,369.326 280.857,370.39 C280.857,371.455 281.721,372.319 282.786,372.319 z" fill="#ECF0F1"/>
      <path d="M310.438,139.04 C304.949,139.04 300.5,134.591 300.5,129.102 C300.5,123.614 304.949,119.165 310.438,119.165 C315.926,119.165 320.375,123.614 320.375,129.102 C320.375,134.591 315.926,139.04 310.438,139.04 z" fill="#E74C3C"/>
      <text transform="matrix(1, 0, 0, 1, 311.062, 129.571)">
        <tspan x="-6.5" y="4.5" font-family="FontAwesome" font-size="14" fill="#ECF0F1"></tspan>
      </text>
      <text transform="matrix(1, 0, 0, 1, 190, 129.102)">
        <tspan x="-6.5" y="4.5" font-family="FontAwesome" font-size="14" fill="#ECF0F1"></tspan>
      </text>
    </g>
    <g id="screen1">
      <g>
        <path d="M125,114.705 L125,386.295 L0.5,386.295 L0.5,114.705 L125,114.705 z" fill="#ECF0F1"/>
        <path d="M125,114.705 L125,386.295 L0.5,386.295 L0.5,114.705 L125,114.705 z" fill-opacity="0" stroke="#CCCCCC" stroke-width="0.5"/>
      </g>
      <path d="M125.659,114.205 L125.659,144 L0,144 L0,114.205 L125.659,114.205 z" fill="#34495E"/>
      <path d="M109.062,139.196 C103.574,139.196 99.125,134.747 99.125,129.259 C99.125,123.77 103.574,119.321 109.062,119.321 C114.551,119.321 119,123.77 119,129.259 C119,134.747 114.551,139.196 109.062,139.196 z" fill="#E74C3C"/>
      <text transform="matrix(1, 0, 0, 1, 109.688, 129.727)">
        <tspan x="-6.5" y="4.5" font-family="FontAwesome" font-size="14" fill="#ECF0F1"></tspan>
      </text>
      <path d="M8,347.5 L35.5,347.5 C39.918,347.5 43.5,351.082 43.5,355.5 L43.5,355.5 C43.5,359.918 39.918,363.5 35.5,363.5 L8,363.5 C3.582,363.5 0,359.918 0,355.5 L0,355.5 C0,351.082 3.582,347.5 8,347.5 z" fill="#3D7E9B"/>
      <path d="M61.569,347.5 L89.069,347.5 C93.488,347.5 97.069,351.082 97.069,355.5 L97.069,355.5 C97.069,359.918 93.488,363.5 89.069,363.5 L61.569,363.5 C57.151,363.5 53.569,359.918 53.569,355.5 L53.569,355.5 C53.569,351.082 57.151,347.5 61.569,347.5 z" fill="#E74C3C"/>
      <text transform="matrix(1, 0, 0, 1, 22.262, 355.625)">
        <tspan x="-13.283" y="3" font-family="ArialMT" font-size="10" fill="#FFFFFF">Reply</tspan>
      </text>
      <text transform="matrix(1, 0, 0, 1, 76.206, 356.125)">
        <tspan x="-17.998" y="3" font-family="ArialMT" font-size="10" fill="#FFFFFF">Dismiss</tspan>
      </text>
      <path d="M93.075,164.978 C99.702,164.978 105.075,170.351 105.075,176.978 L105.075,323.978 C105.065,326.28 104.424,328.517 103.136,330.425 L105.075,340.667 L98.443,334.678 C96.782,335.608 94.942,335.884 93.075,335.978 L4.075,335.978 C2.687,335.969 1.284,335.767 0,335.225 L0,165.732 C1.259,165.108 2.7,165.048 4.075,164.978 L93.075,164.978 z" fill="#34495E"/>
      <g id="cut_text">
        <text transform="matrix(1, 0, 0, 1, 46.017, 196)">
          <tspan x="-46.017" y="4.5" font-family="ArialMT" font-size="14" fill="#FFFFFF">Got your email </tspan>
        </text>
        <text transform="matrix(1, 0, 0, 1, 26.743, 212)">
          <tspan x="-26.743" y="4.5" font-family="ArialMT" font-size="14" fill="#FFFFFF">but can't </tspan>
        </text>
        <text transform="matrix(1, 0, 0, 1, 34.741, 228)">
          <tspan x="-34.741" y="4.5" font-family="ArialMT" font-size="14" fill="#FFFFFF">answer the </tspan>
        </text>
        <text transform="matrix(1, 0, 0, 1, 35.527, 244)">
          <tspan x="-35.527" y="4.5" font-family="ArialMT" font-size="14" fill="#FFFFFF">phone right </tspan>
        </text>
        <text transform="matrix(1, 0, 0, 1, 48.362, 260)">
          <tspan x="-48.362" y="4.5" font-family="ArialMT" font-size="14" fill="#FFFFFF">now. Catch you </tspan>
        </text>
        <text transform="matrix(1, 0, 0, 1, 45.638, 276)">
          <tspan x="-45.638" y="4.5" font-family="ArialMT" font-size="14" fill="#FFFFFF">later. Send me </tspan>
        </text>
        <text transform="matrix(1, 0, 0, 1, 26.958, 292)">
          <tspan x="-26.958" y="4.5" font-family="ArialMT" font-size="14" fill="#FFFFFF">an email </tspan>
        </text>
        <text transform="matrix(1, 0, 0, 1, 25.017, 308)">
          <tspan x="-25.017" y="4.5" font-family="ArialMT" font-size="14" fill="#FFFFFF">instead.</tspan>
        </text>
      </g>
    </g>
  </g>
</svg>
