<?xml version="1.0" encoding="UTF-8"?>
<!DOCTYPE svg PUBLIC "-//W3C//DTD SVG 1.1//EN" "http://www.w3.org/Graphics/SVG/1.1/DTD/svg11.dtd">
<svg version="1.1" xmlns="http://www.w3.org/2000/svg" xmlns:xlink="http://www.w3.org/1999/xlink" x="0" y="0" width="140" height="140" viewBox="0, 0, 140, 140">
  <g id="built">
    <path d="M0,0 L140,0 L140,140 L0,140 L0,0 z" fill="#3D7E9B"/>
    <path d="M140,60.207 L140,107.994 L113.488,107.994 C103.585,123.103 87.779,131.17 69.876,131.617 C51.781,131.504 36.398,122.787 26.264,107.994 L-0,107.994 L-0,60.207 L140,60.207 z" fill="#E74C3C"/>
    <path d="M94.31,16.117 L103.507,53.916 L110.134,38.973 L117.573,57.398 L121.765,48.44 L126.093,59.531 L136.101,41.678 C137.387,45.365 138.682,49.05 140,52.726 L140,60.207 L0,60.207 L0,46.883 C3.105,50.001 5.278,54.331 8.835,56.988 C9.647,56.988 29.122,45.314 29.122,45.314 L38.319,51.049 L60.228,24.096 L74.023,49.928 L94.31,16.117 z" fill="#ECF0F1"/>
    <g>
      <text transform="matrix(1, 0, 0, 1, 70, 87.912)">
        <tspan x="-65.625" y="3.955" font-family="FontAwesome" font-size="15" fill="#333333">        </tspan>
      </text>
      <path d="M15.089,87.045 C15.089,87.338 14.846,87.581 14.554,87.581 L10.352,87.581 L11.934,89.163 C12.034,89.263 12.084,89.397 12.084,89.54 C12.084,89.682 12.034,89.816 11.934,89.916 L11.172,90.678 C11.071,90.778 10.937,90.829 10.795,90.829 C10.653,90.829 10.519,90.778 10.418,90.678 L7.388,87.648 L6.627,86.886 C6.526,86.786 6.476,86.652 6.476,86.509 C6.476,86.367 6.526,86.233 6.627,86.133 L7.388,85.371 L10.418,82.341 C10.519,82.241 10.653,82.19 10.795,82.19 C10.937,82.19 11.071,82.241 11.172,82.341 L11.934,83.103 C12.034,83.203 12.093,83.337 12.093,83.479 C12.093,83.622 12.034,83.756 11.934,83.856 L10.352,85.438 L14.554,85.438 C14.846,85.438 15.089,85.681 15.089,85.974 z M17.232,86.509 C17.232,82.96 14.353,80.081 10.804,80.081 C7.254,80.081 4.375,82.96 4.375,86.509 C4.375,90.059 7.254,92.938 10.804,92.938 C14.353,92.938 17.232,90.059 17.232,86.509 z M33.839,90.527 L33.839,82.492 C33.839,81.161 32.759,80.081 31.429,80.081 L23.393,80.081 C22.062,80.081 20.982,81.161 20.982,82.492 L20.982,90.527 C20.982,91.858 22.062,92.938 23.393,92.938 L27.946,92.938 L27.946,87.849 L26.071,87.849 L26.071,85.974 L27.946,85.974 L27.946,84.584 C27.946,82.927 28.976,82.023 30.458,82.023 C31.161,82.023 31.696,82.073 31.964,82.098 L31.964,83.831 L30.859,83.839 C30.056,83.839 29.821,84.216 29.821,84.777 L29.821,85.974 L31.772,85.974 L31.521,87.849 L29.821,87.849 L29.821,92.938 L31.429,92.938 C32.759,92.938 33.839,91.858 33.839,90.527 z M48.304,84.116 C48.069,84.475 47.768,84.785 47.425,85.028 C47.433,85.103 47.433,85.179 47.433,85.254 C47.433,87.581 45.658,90.259 42.427,90.259 C41.431,90.259 40.511,89.967 39.732,89.473 C39.866,89.489 40.008,89.498 40.151,89.498 C40.979,89.498 41.733,89.213 42.335,88.744 C41.565,88.728 40.921,88.217 40.695,87.522 C40.804,87.539 40.912,87.556 41.021,87.556 C41.18,87.556 41.297,87.531 41.448,87.489 C40.644,87.33 40,86.618 40,85.765 C40,85.756 40,85.748 40,85.748 C40.268,85.873 40.544,85.957 40.837,85.965 C40.36,85.647 40.075,85.112 40.075,84.501 C40.075,84.182 40.167,83.873 40.318,83.613 C41.189,84.685 42.486,85.379 43.951,85.455 C43.917,85.329 43.909,85.187 43.909,85.053 C43.909,84.082 44.696,83.295 45.667,83.295 C46.169,83.295 46.629,83.504 46.948,83.848 C47.349,83.772 47.726,83.622 48.069,83.421 C47.935,83.831 47.659,84.182 47.291,84.4 C47.651,84.35 47.985,84.258 48.304,84.116 z M50.446,82.492 C50.446,81.161 49.367,80.081 48.036,80.081 L40,80.081 C38.669,80.081 37.589,81.161 37.589,82.492 L37.589,90.527 C37.589,91.858 38.669,92.938 40,92.938 L48.036,92.938 C49.367,92.938 50.446,91.858 50.446,90.527 z M61.136,89.205 C61.136,88.485 60.424,88.05 59.913,87.681 C59.821,87.665 59.738,87.665 59.654,87.665 C58.783,87.665 57.503,87.941 57.503,89.037 C57.503,90.075 58.616,90.452 59.478,90.452 C60.273,90.452 61.136,90.126 61.136,89.205 z M60.516,84.643 C60.516,83.856 60.056,82.525 59.102,82.525 C58.39,82.525 58.064,83.128 58.064,83.756 C58.064,84.551 58.516,85.806 59.47,85.806 C60.156,85.806 60.516,85.279 60.516,84.643 z M61.403,82.492 L60.709,82.492 C61.186,82.977 61.504,83.345 61.504,84.082 C61.504,85.463 60.248,85.631 60.248,86.309 C60.248,87.003 61.889,87.271 61.889,88.753 C61.889,90.285 60.223,90.938 58.934,90.938 C57.921,90.938 56.507,90.527 56.507,89.28 C56.507,88.686 56.883,88.184 57.377,87.874 C57.997,87.489 58.809,87.397 59.528,87.347 C59.336,87.104 59.194,86.878 59.194,86.56 C59.194,86.401 59.235,86.258 59.302,86.108 C59.185,86.124 59.06,86.133 58.942,86.133 C57.905,86.133 57.076,85.379 57.076,84.325 C57.076,82.801 58.541,81.956 59.922,81.956 L62.14,81.956 z M63.839,86.242 L63.839,87.581 L63.304,87.581 L63.304,86.242 L62.232,86.242 L62.232,85.706 L63.304,85.706 L63.304,84.634 L63.839,84.634 L63.839,85.706 L64.911,85.706 L64.911,86.242 z M67.054,82.492 C67.054,81.161 65.974,80.081 64.643,80.081 L56.607,80.081 C55.276,80.081 54.196,81.161 54.196,82.492 L54.196,90.527 C54.196,91.858 55.276,92.938 56.607,92.938 L64.643,92.938 C65.974,92.938 67.054,91.858 67.054,90.527 z M82.204,90.946 C82.204,91.23 81.978,91.456 81.694,91.456 L72.745,91.456 C72.461,91.456 72.235,91.23 72.235,90.946 L72.235,85.522 L73.415,85.522 C73.306,85.865 73.248,86.242 73.248,86.618 C73.248,88.761 75.039,90.494 77.24,90.494 C79.45,90.494 81.242,88.761 81.242,86.618 C81.242,86.242 81.183,85.865 81.074,85.522 L82.204,85.522 z M79.827,86.484 C79.827,87.866 78.672,88.987 77.24,88.987 C75.817,88.987 74.662,87.866 74.662,86.484 C74.662,85.103 75.817,83.982 77.24,83.982 C78.672,83.982 79.827,85.103 79.827,86.484 z M82.204,83.471 C82.204,83.789 81.945,84.049 81.627,84.049 L80.17,84.049 C79.852,84.049 79.593,83.789 79.593,83.471 L79.593,82.09 C79.593,81.772 79.852,81.512 80.17,81.512 L81.627,81.512 C81.945,81.512 82.204,81.772 82.204,82.09 z M83.661,81.73 C83.661,80.826 82.916,80.081 82.012,80.081 L72.453,80.081 C71.548,80.081 70.804,80.826 70.804,81.73 L70.804,91.289 C70.804,92.193 71.548,92.938 72.453,92.938 L82.012,92.938 C82.916,92.938 83.661,92.193 83.661,91.289 z M91.696,89.724 C91.696,90.318 91.219,90.795 90.625,90.795 C90.031,90.795 89.554,90.318 89.554,89.724 C89.554,89.129 90.031,88.652 90.625,88.652 C91.219,88.652 91.696,89.129 91.696,89.724 z M94.634,90.511 C94.643,90.586 94.609,90.661 94.559,90.712 C94.509,90.762 94.442,90.795 94.367,90.795 L93.295,90.795 C93.153,90.795 93.036,90.686 93.027,90.544 C92.902,88.828 91.521,87.447 89.805,87.321 C89.662,87.313 89.554,87.196 89.554,87.054 L89.554,85.982 C89.554,85.907 89.587,85.84 89.637,85.79 C89.687,85.739 89.763,85.706 89.838,85.714 C92.433,85.857 94.492,87.916 94.634,90.511 z M97.849,90.519 C97.857,90.594 97.832,90.661 97.773,90.712 C97.723,90.762 97.656,90.795 97.581,90.795 L96.509,90.795 C96.367,90.795 96.25,90.678 96.242,90.536 C96.116,87.062 93.287,84.233 89.813,84.107 C89.671,84.099 89.554,83.982 89.554,83.839 L89.554,82.768 C89.554,82.693 89.587,82.626 89.637,82.575 C89.687,82.517 89.746,82.492 89.83,82.5 C94.182,82.642 97.706,86.166 97.849,90.519 z M100.268,82.492 C100.268,81.161 99.188,80.081 97.857,80.081 L89.821,80.081 C88.49,80.081 87.411,81.161 87.411,82.492 L87.411,90.527 C87.411,91.858 88.49,92.938 89.821,92.938 L97.857,92.938 C99.188,92.938 100.268,91.858 100.268,90.527 z M119.018,84.953 C118.767,85.229 118.482,85.472 118.181,85.681 C116.783,86.627 115.377,87.581 114.012,88.569 C113.309,89.088 112.439,89.724 111.526,89.724 L111.518,89.724 L111.509,89.724 C110.597,89.724 109.727,89.088 109.023,88.569 C107.659,87.573 106.253,86.627 104.863,85.681 C104.554,85.472 104.269,85.229 104.018,84.953 L104.018,91.599 C104.018,92.335 104.62,92.938 105.357,92.938 L117.679,92.938 C118.415,92.938 119.018,92.335 119.018,91.599 z M119.018,82.492 C119.018,81.755 118.407,81.152 117.679,81.152 L105.357,81.152 C104.461,81.152 104.018,81.855 104.018,82.676 C104.018,83.438 104.863,84.383 105.458,84.785 C106.755,85.689 108.069,86.593 109.367,87.506 C109.911,87.882 110.831,88.652 111.509,88.652 L111.518,88.652 L111.526,88.652 C112.204,88.652 113.125,87.882 113.669,87.506 C114.966,86.593 116.281,85.689 117.586,84.785 C118.323,84.275 119.018,83.429 119.018,82.492 z M133.524,86.509 C133.524,86.652 133.474,86.786 133.373,86.886 L132.612,87.648 L129.581,90.678 C129.481,90.778 129.347,90.829 129.205,90.829 C129.062,90.829 128.929,90.778 128.828,90.678 L128.066,89.916 C127.966,89.816 127.907,89.682 127.907,89.54 C127.907,89.397 127.966,89.263 128.066,89.163 L129.648,87.581 L125.446,87.581 C125.153,87.581 124.911,87.338 124.911,87.045 L124.911,85.974 C124.911,85.681 125.153,85.438 125.446,85.438 L129.648,85.438 L128.066,83.856 C127.966,83.756 127.916,83.622 127.916,83.479 C127.916,83.337 127.966,83.203 128.066,83.103 L128.828,82.341 C128.929,82.241 129.062,82.19 129.205,82.19 C129.347,82.19 129.481,82.241 129.581,82.341 L132.612,85.371 L133.373,86.133 C133.474,86.233 133.524,86.367 133.524,86.509 z M135.625,86.509 C135.625,82.96 132.745,80.081 129.196,80.081 C125.647,80.081 122.768,82.96 122.768,86.509 C122.768,90.059 125.647,92.938 129.196,92.938 C132.745,92.938 135.625,90.059 135.625,86.509 z" fill="#ECF0F1"/>
    </g>
    <path d="M134.399,60.207 L134.399,65.537 C134.399,68.254 132.325,70.457 129.766,70.457 L9.883,70.457 C7.324,70.457 5.25,68.254 5.25,65.537 L5.25,60.207 L134.399,60.207 z" fill="#34495E"/>
    <text transform="matrix(1, 0, 0, 1, 70, 65.907)">
      <tspan x="-43.7" y="2.3" font-family="LucidaGrande" font-size="8" fill="#FFFFFF">S</tspan>
      <tspan x="-39.391" y="2.3" font-family="FontAwesome" font-size="8" fill="#FFFFFF"> </tspan>
      <tspan x="-37.391" y="2.3" font-family="LucidaGrande" font-size="8" fill="#FFFFFF">k</tspan>
      <tspan x="-32.715" y="2.3" font-family="FontAwesome" font-size="8" fill="#FFFFFF"> </tspan>
      <tspan x="-30.715" y="2.3" font-family="LucidaGrande" font-size="8" fill="#FFFFFF">a</tspan>
      <tspan x="-26.297" y="2.3" font-family="FontAwesome" font-size="8" fill="#FFFFFF"> </tspan>
      <tspan x="-24.297" y="2.3" font-family="LucidaGrande" font-size="8" fill="#FFFFFF">t</tspan>
      <tspan x="-21.305" y="2.3" font-family="FontAwesome" font-size="8" fill="#FFFFFF"> </tspan>
      <tspan x="-19.305" y="2.3" font-family="LucidaGrande" font-size="8" fill="#FFFFFF">e</tspan>
      <tspan x="-14.848" y="2.3" font-family="FontAwesome" font-size="8" fill="#FFFFFF"> </tspan>
      <tspan x="-12.848" y="2.3" font-family="LucidaGrande" font-size="8" fill="#FFFFFF">r'</tspan>
      <tspan x="-7.743" y="2.3" font-family="FontAwesome" font-size="8" fill="#FFFFFF"> </tspan>
      <tspan x="-5.743" y="2.3" font-family="LucidaGrande" font-size="8" fill="#FFFFFF">s</tspan>
      <tspan x="-1.665" y="2.3" font-family="FontAwesome" font-size="8" fill="#FFFFFF">   </tspan>
      <tspan x="4.335" y="2.3" font-family="LucidaGrande" font-size="8" fill="#FFFFFF">C</tspan>
      <tspan x="9.871" y="2.3" font-family="FontAwesome" font-size="8" fill="#FFFFFF"> </tspan>
      <tspan x="11.871" y="2.3" font-family="LucidaGrande" font-size="8" fill="#FFFFFF">o</tspan>
      <tspan x="16.785" y="2.3" font-family="FontAwesome" font-size="8" fill="#FFFFFF"> </tspan>
      <tspan x="18.785" y="2.3" font-family="LucidaGrande" font-size="8" fill="#FFFFFF">r</tspan>
      <tspan x="22.058" y="2.3" font-family="FontAwesome" font-size="8" fill="#FFFFFF"> </tspan>
      <tspan x="24.058" y="2.3" font-family="LucidaGrande" font-size="8" fill="#FFFFFF">n</tspan>
      <tspan x="29.023" y="2.3" font-family="FontAwesome" font-size="8" fill="#FFFFFF"> </tspan>
      <tspan x="31.023" y="2.3" font-family="LucidaGrande" font-size="8" fill="#FFFFFF">e</tspan>
      <tspan x="35.48" y="2.3" font-family="FontAwesome" font-size="8" fill="#FFFFFF"> </tspan>
      <tspan x="37.48" y="2.3" font-family="LucidaGrande" font-size="8" fill="#FFFFFF">r</tspan>
    </text>
  </g>
</svg>
