<?xml version="1.0" encoding="UTF-8"?>
<!DOCTYPE svg PUBLIC "-//W3C//DTD SVG 1.1//EN" "http://www.w3.org/Graphics/SVG/1.1/DTD/svg11.dtd">
<svg version="1.1" xmlns="http://www.w3.org/2000/svg" xmlns:xlink="http://www.w3.org/1999/xlink" x="0" y="0" width="500" height="500" viewBox="0, 0, 500, 500">
  <g id="built">
    <path d="M0,-0 L500,-0 L500,500 L0,500 L0,-0 z" fill="#3D7E9B"/>
    <g id="drop1">
      <g>
        <path d="M382.5,168 C390.14,168 396.333,174.044 396.333,181.5 C396.234,183.412 396.356,182.429 395.935,184.444 C399.663,184.809 401.661,188.14 402,191.5 C402,195.458 398.791,198.667 394.833,198.667 C392.403,198.591 390.33,197.493 388.891,195.507 C388.519,194.995 388.4,194.341 388.155,193.758 C386.407,194.69 384.442,194.904 382.5,195 C374.86,195 368.667,188.956 368.667,181.5 C368.667,174.044 374.86,168 382.5,168 z" fill="#849495"/>
        <path d="M382.5,168 C390.14,168 396.333,174.044 396.333,181.5 C396.234,183.412 396.356,182.429 395.935,184.444 C399.663,184.809 401.661,188.14 402,191.5 C402,195.458 398.791,198.667 394.833,198.667 C392.403,198.591 390.33,197.493 388.891,195.507 C388.519,194.995 388.4,194.341 388.155,193.758 C386.407,194.69 384.442,194.904 382.5,195 C374.86,195 368.667,188.956 368.667,181.5 C368.667,174.044 374.86,168 382.5,168 z" fill-opacity="0" stroke="#000000" stroke-width="2"/>
      </g>
      <path d="M385.5,172.5 C389.409,172.524 390.235,176.411 392,179.5" fill-opacity="0" stroke="#FFFFFF" stroke-width="2"/>
    </g>
    <g id="drop2">
      <g>
        <path d="M140.5,370.333 C148.14,370.333 154.333,376.377 154.333,383.833 C154.234,385.745 154.356,384.763 153.935,386.778 C157.663,387.143 159.661,390.474 160,393.833 C160,397.791 156.791,401 152.833,401 C150.403,400.925 148.33,399.826 146.891,397.84 C146.519,397.328 146.4,396.674 146.154,396.091 C144.407,397.023 142.442,397.238 140.5,397.333 C132.86,397.333 126.667,391.289 126.667,383.833 C126.667,376.377 132.86,370.333 140.5,370.333 z" fill="#E74C3C"/>
        <path d="M140.5,370.333 C148.14,370.333 154.333,376.377 154.333,383.833 C154.234,385.745 154.356,384.763 153.935,386.778 C157.663,387.143 159.661,390.474 160,393.833 C160,397.791 156.791,401 152.833,401 C150.403,400.925 148.33,399.826 146.891,397.84 C146.519,397.328 146.4,396.674 146.154,396.091 C144.407,397.023 142.442,397.238 140.5,397.333 C132.86,397.333 126.667,391.289 126.667,383.833 C126.667,376.377 132.86,370.333 140.5,370.333 z" fill-opacity="0" stroke="#000000" stroke-width="2"/>
      </g>
      <path d="M143.007,375.624 L143.365,375.637 L143.985,375.725 L144.535,375.886 L145.035,376.115 L145.492,376.408 L145.911,376.76 L146.482,377.391 L147.148,378.381 L147.746,379.493 L148.323,380.679 L148.923,381.885 L149.249,382.482 L149.249,382.482 C149.385,382.732 149.832,382.644 150.247,382.286 C150.662,381.928 150.887,381.435 150.751,381.185 L150.435,380.607 L149.837,379.406 L149.249,378.199 L148.624,377.041 L147.912,375.994 L147.292,375.316 L146.82,374.925 L146.294,374.594 L145.709,374.334 L145.057,374.152 L144.35,374.057 L143.993,374.043 C143.651,374.03 143.154,374.374 142.882,374.81 C142.61,375.247 142.666,375.611 143.007,375.624 L143.007,375.624" fill="#FFFFFF"/>
    </g>
    <g id="drop3">
      <g>
        <path d="M270.667,433.833 C278.307,433.833 284.5,439.877 284.5,447.333 C284.401,449.245 284.523,448.263 284.102,450.278 C287.83,450.643 289.828,453.974 290.167,457.333 C290.167,461.291 286.958,464.5 283,464.5 C280.57,464.425 278.497,463.326 277.057,461.34 C276.686,460.828 276.567,460.174 276.321,459.591 C274.574,460.523 272.609,460.738 270.667,460.833 C263.027,460.833 256.833,454.789 256.833,447.333 C256.833,439.877 263.027,433.833 270.667,433.833 z" fill="#E74C3C"/>
        <path d="M270.667,433.833 C278.307,433.833 284.5,439.877 284.5,447.333 C284.401,449.245 284.523,448.263 284.102,450.278 C287.83,450.643 289.828,453.974 290.167,457.333 C290.167,461.291 286.958,464.5 283,464.5 C280.57,464.425 278.497,463.326 277.057,461.34 C276.686,460.828 276.567,460.174 276.321,459.591 C274.574,460.523 272.609,460.738 270.667,460.833 C263.027,460.833 256.833,454.789 256.833,447.333 C256.833,439.877 263.027,433.833 270.667,433.833 z" fill-opacity="0" stroke="#000000" stroke-width="2"/>
      </g>
      <path d="M273.174,439.124 L273.531,439.137 L274.152,439.225 L274.702,439.386 L275.202,439.615 L275.659,439.908 L276.078,440.26 L276.648,440.891 L277.315,441.881 L277.913,442.993 L278.489,444.179 L279.09,445.385 L279.416,445.982 L279.416,445.982 C279.552,446.232 279.999,446.144 280.414,445.786 C280.828,445.428 281.054,444.935 280.918,444.685 L280.602,444.107 L280.003,442.906 L279.416,441.699 L278.79,440.541 L278.079,439.494 L277.459,438.816 L276.986,438.425 L276.461,438.094 L275.875,437.834 L275.224,437.652 L274.517,437.557 L274.159,437.543 C273.818,437.53 273.32,437.874 273.048,438.31 C272.776,438.747 272.833,439.111 273.174,439.124 L273.174,439.124" fill="#FFFFFF"/>
    </g>
    <g id="paint1">
      <path d="M166.875,254.237 C125.569,254.237 92.083,220.752 92.083,179.446 C92.083,138.139 125.569,104.654 166.875,104.654 C208.181,104.654 241.667,138.139 241.667,179.446 C241.667,220.752 208.181,254.237 166.875,254.237 z" fill="#000000" opacity="0.25"/>
      <g>
        <path d="M154.745,245.875 C113.807,245.875 80.62,212.688 80.62,171.75 C80.62,130.812 113.807,97.625 154.745,97.625 C195.683,97.625 228.87,130.812 228.87,171.75 C228.87,212.688 195.683,245.875 154.745,245.875 z" fill="#ECF0F1"/>
        <path d="M154.745,245.875 C113.807,245.875 80.62,212.688 80.62,171.75 C80.62,130.812 113.807,97.625 154.745,97.625 C195.683,97.625 228.87,130.812 228.87,171.75 C228.87,212.688 195.683,245.875 154.745,245.875 z" fill-opacity="0" stroke="#000000" stroke-width="3"/>
      </g>
      <g>
        <path d="M154.875,239.752 C117.246,239.752 86.743,209.248 86.743,171.62 C86.743,133.991 117.246,103.487 154.875,103.487 C192.504,103.487 223.007,133.991 223.007,171.62 C223.007,209.248 192.504,239.752 154.875,239.752 z" fill="#34495E"/>
        <path d="M154.875,239.752 C117.246,239.752 86.743,209.248 86.743,171.62 C86.743,133.991 117.246,103.487 154.875,103.487 C192.504,103.487 223.007,133.991 223.007,171.62 C223.007,209.248 192.504,239.752 154.875,239.752 z" fill-opacity="0" stroke="#000000" stroke-width="1"/>
      </g>
      <g>
        <path d="M154.745,235.583 C119.49,235.583 90.911,207.004 90.911,171.75 C90.911,136.496 119.49,107.917 154.745,107.917 C189.999,107.917 218.578,136.496 218.578,171.75 C218.578,207.004 189.999,235.583 154.745,235.583 z" fill="#3D7E9B"/>
        <path d="M154.745,235.583 C119.49,235.583 90.911,207.004 90.911,171.75 C90.911,136.496 119.49,107.917 154.745,107.917 C189.999,107.917 218.578,136.496 218.578,171.75 C218.578,207.004 189.999,235.583 154.745,235.583 z" fill-opacity="0" stroke="#000000" stroke-width="3"/>
      </g>
      <path d="M157.8,109.4 C171.2,109.2 216.261,122.56 217.208,171.792 C218.078,217 172,236.2 158.6,233.6 C158.6,233.6 181.316,219.917 193,203.5 C200.011,193.65 201.873,184.016 202,173.75 C202.139,162.493 198.979,148.952 190.75,137.75 C179.15,121.959 157.8,109.4 157.8,109.4 z" fill="#FCFEFF" opacity="0.34"/>
      <path d="M151.562,162.375 C165.938,164.562 160.312,175.375 152.062,175.938" fill-opacity="0" stroke="#F3F3F3" stroke-width="1" stroke-linecap="round" opacity="0.4"/>
      <path d="M158.3,225.167 C157.967,225.167 98.833,219.958 99.167,171.167 C99.5,122.375 158.3,119.833 158.3,119.833" fill-opacity="0" stroke="#F3F3F3" stroke-width="1" opacity="0.4"/>
    </g>
    <g id="paint2">
      <path d="M195.208,407.779 C153.902,407.779 120.417,374.294 120.417,332.987 C120.417,291.681 153.902,258.196 195.208,258.196 C236.515,258.196 270,291.681 270,332.987 C270,374.294 236.515,407.779 195.208,407.779 z" fill="#000000" opacity="0.25"/>
      <g>
        <path d="M183.078,399.417 C142.14,399.417 108.953,366.23 108.953,325.292 C108.953,284.354 142.14,251.167 183.078,251.167 C224.016,251.167 257.203,284.354 257.203,325.292 C257.203,366.23 224.016,399.417 183.078,399.417 z" fill="#ECF0F1"/>
        <path d="M183.078,399.417 C142.14,399.417 108.953,366.23 108.953,325.292 C108.953,284.354 142.14,251.167 183.078,251.167 C224.016,251.167 257.203,284.354 257.203,325.292 C257.203,366.23 224.016,399.417 183.078,399.417 z" fill-opacity="0" stroke="#000000" stroke-width="3"/>
      </g>
      <g>
        <path d="M183.208,393.294 C145.58,393.294 115.076,362.79 115.076,325.161 C115.076,287.533 145.58,257.029 183.208,257.029 C220.837,257.029 251.341,287.533 251.341,325.161 C251.341,362.79 220.837,393.294 183.208,393.294 z" fill="#34495E"/>
        <path d="M183.208,393.294 C145.58,393.294 115.076,362.79 115.076,325.161 C115.076,287.533 145.58,257.029 183.208,257.029 C220.837,257.029 251.341,287.533 251.341,325.161 C251.341,362.79 220.837,393.294 183.208,393.294 z" fill-opacity="0" stroke="#000000" stroke-width="1"/>
      </g>
      <path d="M182.578,388.625 C147.324,388.625 118.745,360.046 118.745,324.792 C118.745,289.537 147.324,260.958 182.578,260.958 C217.832,260.958 246.412,289.537 246.412,324.792 C246.412,360.046 217.832,388.625 182.578,388.625 z" fill="#E74C3C"/>
      <path d="M186.133,262.942 C199.533,262.742 244.595,276.101 245.542,325.333 C246.412,370.542 200.333,389.742 186.933,387.142 C186.933,387.142 209.649,373.459 221.333,357.042 C228.344,347.191 230.206,337.557 230.333,327.292 C230.473,316.035 227.312,302.494 219.083,291.292 C207.483,275.501 186.133,262.942 186.133,262.942 z" fill="#FCFEFF" opacity="0.34"/>
      <path d="M179.896,315.917 C194.271,318.104 188.646,328.917 180.396,329.479" fill-opacity="0" stroke="#F3F3F3" stroke-width="1" stroke-linecap="round" opacity="0.4"/>
      <path d="M186.633,378.708 C186.3,378.708 127.167,373.5 127.5,324.708 C127.833,275.917 186.633,273.375 186.633,273.375" fill-opacity="0" stroke="#F3F3F3" stroke-width="1" opacity="0.4"/>
    </g>
    <g id="paint3">
      <path d="M318.542,244 C277.235,244 243.75,210.515 243.75,169.208 C243.75,127.902 277.235,94.417 318.542,94.417 C359.848,94.417 393.333,127.902 393.333,169.208 C393.333,210.515 359.848,244 318.542,244 z" fill="#000000" opacity="0.25"/>
      <g>
        <path d="M306.411,235.638 C265.473,235.638 232.286,202.451 232.286,161.513 C232.286,120.575 265.473,87.388 306.411,87.388 C347.35,87.388 380.536,120.575 380.536,161.513 C380.536,202.451 347.35,235.638 306.411,235.638 z" fill="#ECF0F1"/>
        <path d="M306.411,235.638 C265.473,235.638 232.286,202.451 232.286,161.513 C232.286,120.575 265.473,87.388 306.411,87.388 C347.35,87.388 380.536,120.575 380.536,161.513 C380.536,202.451 347.35,235.638 306.411,235.638 z" fill-opacity="0" stroke="#000000" stroke-width="3"/>
      </g>
      <g>
        <path d="M306.542,229.515 C268.913,229.515 238.409,199.011 238.409,161.382 C238.409,123.754 268.913,93.25 306.542,93.25 C344.17,93.25 374.674,123.754 374.674,161.382 C374.674,199.011 344.17,229.515 306.542,229.515 z" fill="#34495E"/>
        <path d="M306.542,229.515 C268.913,229.515 238.409,199.011 238.409,161.382 C238.409,123.754 268.913,93.25 306.542,93.25 C344.17,93.25 374.674,123.754 374.674,161.382 C374.674,199.011 344.17,229.515 306.542,229.515 z" fill-opacity="0" stroke="#000000" stroke-width="1"/>
      </g>
      <g>
        <path d="M306.411,225.346 C271.157,225.346 242.578,196.767 242.578,161.513 C242.578,126.258 271.157,97.679 306.411,97.679 C341.666,97.679 370.245,126.258 370.245,161.513 C370.245,196.767 341.666,225.346 306.411,225.346 z" fill="#839495"/>
        <path d="M306.411,225.346 C271.157,225.346 242.578,196.767 242.578,161.513 C242.578,126.258 271.157,97.679 306.411,97.679 C341.666,97.679 370.245,126.258 370.245,161.513 C370.245,196.767 341.666,225.346 306.411,225.346 z" fill-opacity="0" stroke="#000000" stroke-width="3"/>
      </g>
      <path d="M309.467,99.163 C322.867,98.963 367.928,112.322 368.875,161.554 C369.745,206.763 323.667,225.963 310.267,223.363 C310.267,223.363 332.982,209.68 344.667,193.263 C351.677,183.412 353.54,173.778 353.667,163.513 C353.806,152.256 350.646,138.715 342.417,127.513 C330.817,111.722 309.467,99.163 309.467,99.163 z" fill="#FCFEFF" opacity="0.34"/>
      <path d="M303.229,152.138 C317.604,154.325 311.979,165.138 303.729,165.7" fill-opacity="0" stroke="#F3F3F3" stroke-width="1" stroke-linecap="round" opacity="0.4"/>
      <path d="M309.967,214.929 C309.633,214.929 250.5,209.721 250.833,160.929 C251.167,112.138 309.967,109.596 309.967,109.596" fill-opacity="0" stroke="#F3F3F3" stroke-width="1" opacity="0.4"/>
    </g>
    <g id="paint4">
      <path d="M346.755,393.333 C305.449,393.333 271.964,359.848 271.964,318.542 C271.964,277.235 305.449,243.75 346.755,243.75 C388.062,243.75 421.547,277.235 421.547,318.542 C421.547,359.848 388.062,393.333 346.755,393.333 z" fill="#000000" opacity="0.25"/>
      <g>
        <path d="M334.625,384.971 C293.687,384.971 260.5,351.784 260.5,310.846 C260.5,269.908 293.687,236.721 334.625,236.721 C375.563,236.721 408.75,269.908 408.75,310.846 C408.75,351.784 375.563,384.971 334.625,384.971 z" fill="#ECF0F1"/>
        <path d="M334.625,384.971 C293.687,384.971 260.5,351.784 260.5,310.846 C260.5,269.908 293.687,236.721 334.625,236.721 C375.563,236.721 408.75,269.908 408.75,310.846 C408.75,351.784 375.563,384.971 334.625,384.971 z" fill-opacity="0" stroke="#000000" stroke-width="3"/>
      </g>
      <g>
        <path d="M334.755,378.848 C297.127,378.848 266.623,348.344 266.623,310.716 C266.623,273.087 297.127,242.583 334.755,242.583 C372.384,242.583 402.888,273.087 402.888,310.716 C402.888,348.344 372.384,378.848 334.755,378.848 z" fill="#34495E"/>
        <path d="M334.755,378.848 C297.127,378.848 266.623,348.344 266.623,310.716 C266.623,273.087 297.127,242.583 334.755,242.583 C372.384,242.583 402.888,273.087 402.888,310.716 C402.888,348.344 372.384,378.848 334.755,378.848 z" fill-opacity="0" stroke="#000000" stroke-width="1"/>
      </g>
      <g>
        <path d="M334.625,374.68 C299.371,374.68 270.792,346.1 270.792,310.846 C270.792,275.592 299.371,247.013 334.625,247.013 C369.879,247.013 398.458,275.592 398.458,310.846 C398.458,346.1 369.879,374.68 334.625,374.68 z" fill="#34495E"/>
        <path d="M334.625,374.68 C299.371,374.68 270.792,346.1 270.792,310.846 C270.792,275.592 299.371,247.013 334.625,247.013 C369.879,247.013 398.458,275.592 398.458,310.846 C398.458,346.1 369.879,374.68 334.625,374.68 z" fill-opacity="0" stroke="#000000" stroke-width="3"/>
      </g>
      <path d="M337.68,248.496 C351.08,248.296 396.142,261.656 397.089,310.888 C397.958,356.096 351.88,375.296 338.48,372.696 C338.48,372.696 361.196,359.013 372.88,342.596 C379.891,332.746 381.753,323.112 381.88,312.846 C382.02,301.589 378.859,288.048 370.63,276.846 C359.03,261.055 337.68,248.496 337.68,248.496 z" fill="#FCFEFF" opacity="0.34"/>
      <path d="M331.443,301.471 C345.818,303.659 340.193,314.471 331.943,315.034" fill-opacity="0" stroke="#F3F3F3" stroke-width="1" stroke-linecap="round" opacity="0.4"/>
      <path d="M338.18,364.263 C337.847,364.263 278.714,359.054 279.047,310.263 C279.38,261.471 338.18,258.929 338.18,258.929" fill-opacity="0" stroke="#F3F3F3" stroke-width="1" opacity="0.4"/>
    </g>
    <g id="brush">
      <g>
        <path d="M310.188,362.5 C311.312,363.75 318.132,369.961 318.132,369.961 C320.125,372.062 325.002,376.568 325.938,379.137 C325.688,385.5 316.688,386.312 316.625,387.25 C315.748,400.399 292.7,417.9 282.7,424.7 C272.7,431.5 253.125,432.562 253.125,432.562 L251.375,432.438 L250.938,431.375 C250.938,431.375 255.261,412.555 262.372,402.774 C269.484,392.993 286.882,370.668 300.053,370.205 C300.992,370.172 302.517,361.492 308.885,361.442 z" fill="#34495E"/>
        <path d="M310.188,362.5 C311.312,363.75 318.132,369.961 318.132,369.961 C320.125,372.062 325.002,376.568 325.938,379.137 C325.688,385.5 316.688,386.312 316.625,387.25 C315.748,400.399 292.7,417.9 282.7,424.7 C272.7,431.5 253.125,432.562 253.125,432.562 L251.375,432.438 L250.938,431.375 C250.938,431.375 255.261,412.555 262.372,402.774 C269.484,392.993 286.882,370.668 300.053,370.205 C300.992,370.172 302.517,361.492 308.885,361.442 z" fill-opacity="0" stroke="#000000" stroke-width="3"/>
      </g>
      <g>
        <path d="M500.5,174.75 L344.688,319.25 L368.833,341.833 L500.5,196.75" fill="#839495"/>
        <path d="M500.5,174.75 L344.688,319.25 L368.833,341.833 L500.5,196.75" fill-opacity="0" stroke="#000000" stroke-width="3"/>
      </g>
      <g>
        <path d="M344.688,319.25 L327.188,337.7 L350.958,360.45 L368.833,341.833 L344.688,319.25 z" fill="#E74C3C"/>
        <path d="M344.688,319.25 L327.188,337.7 L350.958,360.45 L368.833,341.833 L344.688,319.25 z" fill-opacity="0" stroke="#000000" stroke-width="3"/>
      </g>
      <g>
        <path d="M307.833,360.5 C307.833,360.5 308.667,352 314,346 C319.333,340 327.188,337.7 327.188,337.7 L350.833,360.625 C350.833,360.625 348.062,370.188 342.5,375 C336.938,379.812 327.25,380.325 327.25,380.325 L307.833,360.5 z" fill="#E74C3C"/>
        <path d="M307.833,360.5 C307.833,360.5 308.667,352 314,346 C319.333,340 327.188,337.7 327.188,337.7 L350.833,360.625 C350.833,360.625 348.062,370.188 342.5,375 C336.938,379.812 327.25,380.325 327.25,380.325 L307.833,360.5 z" fill-opacity="0" stroke="#000000" stroke-width="3"/>
      </g>
      <g>
        <path d="M265.125,402.125 C265.375,402 271.25,407.25 271.25,407.25 C271.25,407.25 280.125,396.875 282.75,396.125 C285.375,395.375 288.75,400.25 288.375,402 C288,403.75 276.25,416.25 276.25,416.25 C276.25,416.25 280.375,425.375 280,425.75 C273.124,432.626 251.906,431.656 251.906,431.656 C251.906,431.656 258.698,405.339 265.125,402.125 z" fill="#E74C3C"/>
        <path d="M265.125,402.125 C265.375,402 271.25,407.25 271.25,407.25 C271.25,407.25 280.125,396.875 282.75,396.125 C285.375,395.375 288.75,400.25 288.375,402 C288,403.75 276.25,416.25 276.25,416.25 C276.25,416.25 280.375,425.375 280,425.75 C273.124,432.626 251.906,431.656 251.906,431.656 C251.906,431.656 258.698,405.339 265.125,402.125 z" fill-opacity="0" stroke="#000000" stroke-width="3"/>
      </g>
      <path d="M409.833,269.5 L445.167,235.833" fill-opacity="0" stroke="#000000" stroke-width="3" stroke-linecap="round"/>
      <path d="M351.833,322.5 L374.5,301.167" fill-opacity="0" stroke="#000000" stroke-width="3" stroke-linecap="round"/>
      <path d="M360.5,331.5 L377.167,314.5" fill-opacity="0" stroke="#000000" stroke-width="3" stroke-linecap="round"/>
      <path d="M365.167,336.5 L370.5,331.5" fill-opacity="0" stroke="#000000" stroke-width="3" stroke-linecap="round"/>
      <path d="M341.375,325.125 L365.167,347.25" fill-opacity="0" stroke="#000000" stroke-width="1" stroke-dasharray="2,1"/>
      <path d="M342.625,322.938 L366.417,345.062" fill-opacity="0" stroke="#000000" stroke-width="1" stroke-dasharray="2,1"/>
      <path d="M338.208,329.125 L362,351.25" fill-opacity="0" stroke="#000000" stroke-width="1" stroke-dasharray="2,1"/>
      <path d="M340.458,327.938 L363.125,348.875" fill-opacity="0" stroke="#000000" stroke-width="1" stroke-dasharray="2,1"/>
      <path d="M334.333,332.312 L358.125,354.438" fill-opacity="0" stroke="#000000" stroke-width="1" stroke-dasharray="2,1"/>
      <path d="M335.583,330.125 L359.375,352.25" fill-opacity="0" stroke="#000000" stroke-width="1" stroke-dasharray="2,1"/>
      <path d="M331.167,336.312 L354.958,358.438" fill-opacity="0" stroke="#000000" stroke-width="1" stroke-dasharray="2,1"/>
      <path d="M332.417,334.125 L356.208,356.25" fill-opacity="0" stroke="#000000" stroke-width="1" stroke-dasharray="2,1"/>
      <path d="M322.875,340.062 L330.375,347.625" fill-opacity="0" stroke="#000000" stroke-width="2" stroke-linecap="round"/>
      <path d="M334.625,351.938 L347.5,364.75" fill-opacity="0" stroke="#000000" stroke-width="2" stroke-linecap="round"/>
      <path d="M334,358.688 L345.312,369.625" fill-opacity="0" stroke="#000000" stroke-width="2" stroke-linecap="round"/>
      <path d="M330.75,354.875 L319.312,343.062" fill-opacity="0" stroke="#000000" stroke-width="2" stroke-linecap="round"/>
      <path d="M316.562,346 L334.312,363.438" fill-opacity="0" stroke="#000000" stroke-width="2" stroke-linecap="round"/>
      <path d="M340.188,374.812 L326.25,360.562" fill-opacity="0" stroke="#000000" stroke-width="2" stroke-linecap="round"/>
      <path d="M311.438,350.938 L334.625,374" fill-opacity="0" stroke="#000000" stroke-width="2" stroke-linecap="round"/>
      <path d="M334.312,377.75 L321.188,365.375" fill-opacity="0" stroke="#000000" stroke-width="2" stroke-linecap="round"/>
      <path d="M309.875,357.562 L315.562,363.75" fill-opacity="0" stroke="#000000" stroke-width="2" stroke-linecap="round"/>
      <path d="M322.312,370.688 L330.375,379.25" fill-opacity="0" stroke="#000000" stroke-width="2" stroke-linecap="round"/>
      <path d="M263.65,410.246 L262.919,411.137 L261.469,413.107 L260.155,415.209 L259.028,417.39 L258.104,419.641 L257.394,421.954 L256.91,424.322 L256.661,426.743 L256.627,427.992 L256.627,427.992 C256.613,428.524 257.133,428.645 257.788,428.263 C258.443,427.881 258.985,427.14 258.998,426.608 L259.024,425.487 L259.242,423.266 L259.667,421.131 L260.282,419.086 L261.069,417.133 L262.014,415.271 L263.106,413.497 L264.368,411.769 L265.1,410.879 C265.618,410.247 265.714,409.594 265.314,409.42 C264.913,409.245 264.169,409.615 263.65,410.246 L263.65,410.246" fill="#FFFEFE"/>
    </g>
    <path d="M500,219.229 L500,246.377 L399.242,357.401 L399.833,357.954 L382.79,375.704 L382.833,375.746 C382.833,375.746 380.063,385.309 374.5,390.121 C368.938,394.934 359.25,395.446 359.25,395.446 L357.782,393.947 L357.937,394.258 C357.688,400.621 348.688,401.434 348.625,402.371 C347.748,415.521 324.7,433.021 314.7,439.821 C312.044,441.442 313.423,440.708 310.561,442.018 C306.321,444.894 301.001,445.796 295.997,446.303 C292.408,446.98 288.772,447.462 285.125,447.683 L283.375,447.558 L282.937,446.496 C282.938,446.497 287.261,427.676 294.372,417.895 C301.484,408.114 318.882,385.789 332.053,385.326 C332.739,384.896 333.386,382.927 333.581,382.552 C335.195,379.458 337.065,376.92 340.767,376.574 L339.833,375.621 C339.833,375.621 340.667,367.121 346,361.121 C349.532,357.252 354.168,354.496 359.115,352.843 L374.245,336.892 L373.688,336.371 L500,219.229 z" fill="#000000" opacity="0.25"/>
  </g>
</svg>
