<?xml version="1.0" encoding="UTF-8"?>
<!DOCTYPE svg PUBLIC "-//W3C//DTD SVG 1.1//EN" "http://www.w3.org/Graphics/SVG/1.1/DTD/svg11.dtd">
<svg version="1.1" xmlns="http://www.w3.org/2000/svg" xmlns:xlink="http://www.w3.org/1999/xlink" x="0" y="0" width="500" height="500" viewBox="0, 0, 500, 500">
  <g id="built">
    <path d="M0,0 L500,0 L500,500 L0,500 L0,0 z" fill="#3D7E9B"/>
    <path d="M56,0 L442.667,0 L442.667,500 L56,500 L56,0 z" fill="#ECF0F1"/>
    <path d="M395,311.5 C401.627,311.5 407,317.276 407,324.402 L407,500 L89.5,500 L89.5,324.401 C89.5,317.276 94.873,311.5 101.5,311.5 L395,311.5 z" fill="#E74C3C"/>
    <path d="M56,0 L442.667,0 L442.667,156 L56,156 L56,0 z" fill="#ECF0F1"/>
    <path d="M56,154.656 L84.512,114.959 L91.015,144.236 L112.024,122.279 C112.024,122.279 135.034,151.05 136.535,151.05 C138.035,151.05 174.051,129.471 174.051,129.471 L191.058,140.071 L231.576,90.25 L257.086,138 L294.603,75.5 L311.61,145.371 L323.865,117.75 L337.621,151.807 L345.374,135.25 L353.378,155.75 L371.886,122.75 C371.886,122.75 382.14,152.186 382.641,152.564 C383.141,152.943 391.394,119.121 391.394,119.5 C391.394,119.879 399.291,147.75 400.648,147.75 C402.006,147.75 410.653,127.25 410.653,127.25 C410.653,127.25 416.155,151.429 416.655,152.564 C417.155,153.7 442.729,101.188 443.229,101.188 L443.292,157 L56,157 L56,154.656 z" fill="#3D7E9B"/>
    <path d="M442.667,157 L442.667,245.333 L329.95,245.333 C311.644,273.263 282.427,288.175 249.333,289 C215.884,288.792 187.449,272.678 168.716,245.333 L56,245.333 L56,157 L442.667,157 z" fill="#E74C3C"/>
    <path d="M105.25,0 C105.25,-0 114.8,28.2 116.75,28.5 C118.7,28.8 128,53.8 130.5,54.25 C133,54.7 140.75,69.25 140.75,69.25 L140,71.6 L140.75,73 L142.82,75.207 L158.25,31.938 L161.85,21.4 L181.05,22.8 L192.25,23.6 C192.25,23.6 191,30.2 190.2,33.8 C189.4,37.4 185.6,47.8 185.6,47.8 C185.6,47.8 187.6,45.4 190.2,45.6 C192.8,45.8 194.253,46.258 194.812,47.812 C195.375,49.375 195.375,53.875 193.625,55.25 C191.875,56.625 188.938,56.75 187.6,55.6 C186.263,54.45 185.6,52.6 185.6,52.6 L182.625,52.75 L156,117.6 C156,117.6 159.938,116.312 161.4,117.2 C162.863,118.088 164.65,120.412 163.437,123.125 C162.225,125.838 161.063,125.975 159.125,125.937 C157.188,125.9 155.5,123 155.5,123 L153.25,123.812 C153.25,123.812 145.625,130.913 141.812,133.062 C138,135.212 124.25,139.188 123.813,134.875 C123.529,132.085 127.563,124.438 128.438,122.312 C129.313,120.188 131.438,107.125 131.438,107.125 L131.528,106.87 C130.781,107.776 129.684,108.103 128.6,108.4 C125.8,109 122.2,111.2 119.4,108.4 C116.6,105.6 118,102 118,102 C118,102 121.4,97.8 121.6,95.8 C121.8,93.8 121.4,87.4 122.2,84.8 C123,82.2 125,77.2 125,77.2 L115.5,81 C115.5,81 113.4,81.8 112.5,78.5 C111.6,75.2 113,75.5 114,71.5 C113.2,69.4 101.4,66 100.75,61.75 C100.1,57.5 78.2,17.2 77.5,12 C76.8,6.8 80.75,-0 80.75,0 L105.25,0 z" fill="#E74C3C"/>
    <text transform="matrix(1, 0, 0, 1, 270.613, 351)">
      <tspan x="-102.887" y="4" font-family="ArialMT" font-size="18" fill="#FFFFFF">Latest News Sept. 2019</tspan>
    </text>
    <text transform="matrix(1, 0, 0, 1, 245.623, 431.5)">
      <tspan x="-140.771" y="-42.5" font-family="ArialMT" font-size="9" fill="#FFFFFF">In 1999, Tony teamed up with Activision to create the Tony Hawk’s Pro </tspan>
      <tspan x="-140.771" y="-32.5" font-family="ArialMT" font-size="9" fill="#FFFFFF">Skater video game franchise. The Tony Hawk video game series </tspan>
      <tspan x="-140.771" y="-22.5" font-family="ArialMT" font-size="9" fill="#FFFFFF">became one of the most popular game franchises in history and </tspan>
      <tspan x="-140.771" y="-12.5" font-family="ArialMT" font-size="9" fill="#FFFFFF">continues to this day. His life would never be the same. In a stroke of </tspan>
      <tspan x="-140.771" y="-2.5" font-family="ArialMT" font-size="9" fill="#FFFFFF">good timing, at the X Games that year, Tony also became the first </tspan>
      <tspan x="-140.771" y="7.5" font-family="ArialMT" font-size="9" fill="#FFFFFF">skateboarder to ever land a 900, a maneuver that had eluded (and </tspan>
      <tspan x="-140.771" y="17.5" font-family="ArialMT" font-size="9" fill="#FFFFFF">occasionally hobbled) him for 10 years . It was one of skating’s most </tspan>
      <tspan x="-140.771" y="27.5" font-family="ArialMT" font-size="9" fill="#FFFFFF">gripping moments, playing out in front of a collection of his peers and </tspan>
      <tspan x="-140.771" y="37.5" font-family="ArialMT" font-size="9" fill="#FFFFFF">fans, and on national TV. That exposure, along with his successful </tspan>
      <tspan x="-140.771" y="47.5" font-family="ArialMT" font-size="9" fill="#FFFFFF">video game, helped establish Tony’s mainstream celebrity.</tspan>
    </text>
    <g>
      <text transform="matrix(1, 0, 0, 1, 132.281, 350)">
        <tspan x="-27.429" y="16.5" font-family="FontAwesome" font-size="48" fill="#333333"></tspan>
      </text>
      <path d="M132.281,339.071 L132.281,349.357 L121.996,349.357 L121.996,339.071 z M135.71,356.214 L118.567,356.214 L118.567,359.643 L135.71,359.643 z M135.71,335.643 L118.567,335.643 L118.567,352.786 L135.71,352.786 z M152.853,356.214 L139.139,356.214 L139.139,359.643 L152.853,359.643 z M152.853,349.357 L139.139,349.357 L139.139,352.786 L152.853,352.786 z M152.853,342.5 L139.139,342.5 L139.139,345.929 L152.853,345.929 z M152.853,335.643 L139.139,335.643 L139.139,339.071 L152.853,339.071 z M111.71,361.357 C111.71,362.295 110.933,363.071 109.996,363.071 C109.058,363.071 108.281,362.295 108.281,361.357 L108.281,335.643 L111.71,335.643 z M156.281,361.357 C156.281,362.295 155.505,363.071 154.567,363.071 L114.844,363.071 C115.031,362.536 115.139,361.946 115.139,361.357 L115.139,332.214 L156.281,332.214 z M159.71,328.786 L111.71,328.786 L111.71,332.214 L104.853,332.214 L104.853,361.357 C104.853,364.196 107.156,366.5 109.996,366.5 L154.567,366.5 C157.406,366.5 159.71,364.196 159.71,361.357 z" fill="#ECF0F1"/>
      <path d="M132.281,339.071 L132.281,349.357 L121.996,349.357 L121.996,339.071 z M135.71,356.214 L118.567,356.214 L118.567,359.643 L135.71,359.643 z M135.71,335.643 L118.567,335.643 L118.567,352.786 L135.71,352.786 z M152.853,356.214 L139.139,356.214 L139.139,359.643 L152.853,359.643 z M152.853,349.357 L139.139,349.357 L139.139,352.786 L152.853,352.786 z M152.853,342.5 L139.139,342.5 L139.139,345.929 L152.853,345.929 z M152.853,335.643 L139.139,335.643 L139.139,339.071 L152.853,339.071 z M111.71,361.357 C111.71,362.295 110.933,363.071 109.996,363.071 C109.058,363.071 108.281,362.295 108.281,361.357 L108.281,335.643 L111.71,335.643 z M156.281,361.357 C156.281,362.295 155.505,363.071 154.567,363.071 L114.844,363.071 C115.031,362.536 115.139,361.946 115.139,361.357 L115.139,332.214 L156.281,332.214 z M159.71,328.786 L111.71,328.786 L111.71,332.214 L104.853,332.214 L104.853,361.357 C104.853,364.196 107.156,366.5 109.996,366.5 L154.567,366.5 C157.406,366.5 159.71,364.196 159.71,361.357 z" fill-opacity="0" stroke="#CCCCCC" stroke-width="0.5"/>
    </g>
    <g>
      <path d="M105.353,374 L396,374" fill="#ECF0F1"/>
      <path d="M105.353,374 L396,374" fill-opacity="0" stroke="#ECF0F1" stroke-width="0.5"/>
    </g>
    <g>
      <text transform="matrix(1, 0, 0, 1, 249.333, 204.5)">
        <tspan x="-183.75" y="10.5" font-family="FontAwesome" font-size="42" fill="#333333">        </tspan>
      </text>
      <path d="M95.583,201.5 C95.583,202.32 94.904,203 94.083,203 L82.318,203 L86.747,207.43 C87.029,207.711 87.169,208.086 87.169,208.484 C87.169,208.883 87.029,209.258 86.747,209.539 L84.615,211.672 C84.333,211.953 83.958,212.094 83.56,212.094 C83.161,212.094 82.786,211.953 82.505,211.672 L74.021,203.187 L71.888,201.055 C71.607,200.773 71.466,200.398 71.466,200 C71.466,199.602 71.607,199.227 71.888,198.945 L74.021,196.812 L82.505,188.328 C82.786,188.047 83.161,187.906 83.56,187.906 C83.958,187.906 84.333,188.047 84.615,188.328 L86.747,190.461 C87.029,190.742 87.193,191.117 87.193,191.516 C87.193,191.914 87.029,192.289 86.747,192.57 L82.318,197 L94.083,197 C94.904,197 95.583,197.68 95.583,198.5 z M101.583,200 C101.583,190.062 93.521,182 83.583,182 C73.646,182 65.583,190.062 65.583,200 C65.583,209.938 73.646,218 83.583,218 C93.521,218 101.583,209.938 101.583,200 z M148.083,211.25 L148.083,188.75 C148.083,185.023 145.06,182 141.333,182 L118.833,182 C115.107,182 112.083,185.023 112.083,188.75 L112.083,211.25 C112.083,214.977 115.107,218 118.833,218 L131.583,218 L131.583,203.75 L126.333,203.75 L126.333,198.5 L131.583,198.5 L131.583,194.609 C131.583,189.969 134.466,187.437 138.615,187.437 C140.583,187.437 142.083,187.578 142.833,187.648 L142.833,192.5 L139.74,192.523 C137.49,192.523 136.833,193.578 136.833,195.148 L136.833,198.5 L142.294,198.5 L141.591,203.75 L136.833,203.75 L136.833,218 L141.333,218 C145.06,218 148.083,214.977 148.083,211.25 z M188.583,193.297 C187.927,194.305 187.083,195.172 186.122,195.852 C186.146,196.062 186.146,196.273 186.146,196.484 C186.146,203 181.177,210.5 172.13,210.5 C169.341,210.5 166.763,209.68 164.583,208.297 C164.958,208.344 165.357,208.367 165.755,208.367 C168.076,208.367 170.185,207.57 171.872,206.258 C169.716,206.211 167.911,204.781 167.279,202.836 C167.583,202.883 167.888,202.93 168.193,202.93 C168.638,202.93 168.966,202.859 169.388,202.742 C167.138,202.297 165.333,200.305 165.333,197.914 C165.333,197.891 165.333,197.867 165.333,197.867 C166.083,198.219 166.857,198.453 167.677,198.477 C166.341,197.586 165.544,196.086 165.544,194.375 C165.544,193.484 165.802,192.617 166.224,191.891 C168.661,194.891 172.294,196.836 176.396,197.047 C176.302,196.695 176.279,196.297 176.279,195.922 C176.279,193.203 178.482,191 181.201,191 C182.607,191 183.896,191.586 184.786,192.547 C185.911,192.336 186.966,191.914 187.927,191.352 C187.552,192.5 186.779,193.484 185.747,194.094 C186.755,193.953 187.693,193.695 188.583,193.297 z M194.583,188.75 C194.583,185.023 191.56,182 187.833,182 L165.333,182 C161.607,182 158.583,185.023 158.583,188.75 L158.583,211.25 C158.583,214.977 161.607,218 165.333,218 L187.833,218 C191.56,218 194.583,214.977 194.583,211.25 z M224.513,207.547 C224.513,205.531 222.521,204.312 221.091,203.281 C220.833,203.234 220.599,203.234 220.365,203.234 C217.927,203.234 214.341,204.008 214.341,207.078 C214.341,209.984 217.458,211.039 219.872,211.039 C222.099,211.039 224.513,210.125 224.513,207.547 z M222.779,194.773 C222.779,192.57 221.49,188.844 218.818,188.844 C216.826,188.844 215.911,190.531 215.911,192.289 C215.911,194.516 217.177,198.031 219.849,198.031 C221.771,198.031 222.779,196.555 222.779,194.773 z M225.263,188.75 L223.318,188.75 C224.654,190.109 225.544,191.141 225.544,193.203 C225.544,197.07 222.029,197.539 222.029,199.437 C222.029,201.383 226.622,202.133 226.622,206.281 C226.622,210.57 221.958,212.398 218.349,212.398 C215.513,212.398 211.552,211.25 211.552,207.758 C211.552,206.094 212.607,204.687 213.99,203.82 C215.724,202.742 217.997,202.484 220.013,202.344 C219.474,201.664 219.076,201.031 219.076,200.141 C219.076,199.695 219.193,199.297 219.38,198.875 C219.052,198.922 218.701,198.945 218.372,198.945 C215.466,198.945 213.146,196.836 213.146,193.883 C213.146,189.617 217.247,187.25 221.115,187.25 L227.326,187.25 z M232.083,199.25 L232.083,203 L230.583,203 L230.583,199.25 L227.583,199.25 L227.583,197.75 L230.583,197.75 L230.583,194.75 L232.083,194.75 L232.083,197.75 L235.083,197.75 L235.083,199.25 z M241.083,188.75 C241.083,185.023 238.06,182 234.333,182 L211.833,182 C208.107,182 205.083,185.023 205.083,188.75 L205.083,211.25 C205.083,214.977 208.107,218 211.833,218 L234.333,218 C238.06,218 241.083,214.977 241.083,211.25 z M283.505,212.422 C283.505,213.219 282.872,213.852 282.076,213.852 L257.021,213.852 C256.224,213.852 255.591,213.219 255.591,212.422 L255.591,197.234 L258.896,197.234 C258.591,198.195 258.427,199.25 258.427,200.305 C258.427,206.305 263.443,211.156 269.607,211.156 C275.794,211.156 280.81,206.305 280.81,200.305 C280.81,199.25 280.646,198.195 280.341,197.234 L283.505,197.234 z M276.849,199.93 C276.849,203.797 273.615,206.937 269.607,206.937 C265.622,206.937 262.388,203.797 262.388,199.93 C262.388,196.062 265.622,192.922 269.607,192.922 C273.615,192.922 276.849,196.062 276.849,199.93 z M283.505,191.492 C283.505,192.383 282.779,193.109 281.888,193.109 L277.81,193.109 C276.919,193.109 276.193,192.383 276.193,191.492 L276.193,187.625 C276.193,186.734 276.919,186.008 277.81,186.008 L281.888,186.008 C282.779,186.008 283.505,186.734 283.505,187.625 z M287.583,186.617 C287.583,184.086 285.497,182 282.966,182 L256.201,182 C253.669,182 251.583,184.086 251.583,186.617 L251.583,213.383 C251.583,215.914 253.669,218 256.201,218 L282.966,218 C285.497,218 287.583,215.914 287.583,213.383 z M310.083,209 C310.083,210.664 308.747,212 307.083,212 C305.419,212 304.083,210.664 304.083,209 C304.083,207.336 305.419,206 307.083,206 C308.747,206 310.083,207.336 310.083,209 z M318.31,211.203 C318.333,211.414 318.24,211.625 318.099,211.766 C317.958,211.906 317.771,212 317.56,212 L314.56,212 C314.161,212 313.833,211.695 313.81,211.297 C313.458,206.492 309.591,202.625 304.786,202.273 C304.388,202.25 304.083,201.922 304.083,201.523 L304.083,198.523 C304.083,198.312 304.177,198.125 304.318,197.984 C304.458,197.844 304.669,197.75 304.88,197.773 C312.146,198.172 317.911,203.937 318.31,211.203 z M327.31,211.227 C327.333,211.438 327.263,211.625 327.099,211.766 C326.958,211.906 326.771,212 326.56,212 L323.56,212 C323.161,212 322.833,211.672 322.81,211.273 C322.458,201.547 314.536,193.625 304.81,193.273 C304.411,193.25 304.083,192.922 304.083,192.523 L304.083,189.523 C304.083,189.312 304.177,189.125 304.318,188.984 C304.458,188.82 304.622,188.75 304.857,188.773 C317.044,189.172 326.911,199.039 327.31,211.227 z M334.083,188.75 C334.083,185.023 331.06,182 327.333,182 L304.833,182 C301.107,182 298.083,185.023 298.083,188.75 L298.083,211.25 C298.083,214.977 301.107,218 304.833,218 L327.333,218 C331.06,218 334.083,214.977 334.083,211.25 z M386.583,195.641 C385.88,196.414 385.083,197.094 384.24,197.68 C380.326,200.328 376.388,203 372.568,205.766 C370.599,207.219 368.161,209 365.607,209 L365.583,209 L365.56,209 C363.005,209 360.568,207.219 358.599,205.766 C354.779,202.977 350.841,200.328 346.951,197.68 C346.083,197.094 345.286,196.414 344.583,195.641 L344.583,214.25 C344.583,216.312 346.271,218 348.333,218 L382.833,218 C384.896,218 386.583,216.312 386.583,214.25 z M386.583,188.75 C386.583,186.687 384.872,185 382.833,185 L348.333,185 C345.826,185 344.583,186.969 344.583,189.266 C344.583,191.398 346.951,194.047 348.615,195.172 C352.247,197.703 355.927,200.234 359.56,202.789 C361.083,203.844 363.661,206 365.56,206 L365.583,206 L365.607,206 C367.505,206 370.083,203.844 371.607,202.789 C375.24,200.234 378.919,197.703 382.576,195.172 C384.638,193.742 386.583,191.375 386.583,188.75 z M427.201,200 C427.201,200.398 427.06,200.773 426.779,201.055 L424.646,203.187 L416.161,211.672 C415.88,211.953 415.505,212.094 415.107,212.094 C414.708,212.094 414.333,211.953 414.052,211.672 L411.919,209.539 C411.638,209.258 411.474,208.883 411.474,208.484 C411.474,208.086 411.638,207.711 411.919,207.43 L416.349,203 L404.583,203 C403.763,203 403.083,202.32 403.083,201.5 L403.083,198.5 C403.083,197.68 403.763,197 404.583,197 L416.349,197 L411.919,192.57 C411.638,192.289 411.497,191.914 411.497,191.516 C411.497,191.117 411.638,190.742 411.919,190.461 L414.052,188.328 C414.333,188.047 414.708,187.906 415.107,187.906 C415.505,187.906 415.88,188.047 416.161,188.328 L424.646,196.812 L426.779,198.945 C427.06,199.227 427.201,199.602 427.201,200 z M433.083,200 C433.083,190.062 425.021,182 415.083,182 C405.146,182 397.083,190.062 397.083,200 C397.083,209.938 405.146,218 415.083,218 C425.021,218 433.083,209.938 433.083,200 z" fill="#ECF0F1"/>
      <path d="M95.583,201.5 C95.583,202.32 94.904,203 94.083,203 L82.318,203 L86.747,207.43 C87.029,207.711 87.169,208.086 87.169,208.484 C87.169,208.883 87.029,209.258 86.747,209.539 L84.615,211.672 C84.333,211.953 83.958,212.094 83.56,212.094 C83.161,212.094 82.786,211.953 82.505,211.672 L74.021,203.187 L71.888,201.055 C71.607,200.773 71.466,200.398 71.466,200 C71.466,199.602 71.607,199.227 71.888,198.945 L74.021,196.812 L82.505,188.328 C82.786,188.047 83.161,187.906 83.56,187.906 C83.958,187.906 84.333,188.047 84.615,188.328 L86.747,190.461 C87.029,190.742 87.193,191.117 87.193,191.516 C87.193,191.914 87.029,192.289 86.747,192.57 L82.318,197 L94.083,197 C94.904,197 95.583,197.68 95.583,198.5 z M101.583,200 C101.583,190.062 93.521,182 83.583,182 C73.646,182 65.583,190.062 65.583,200 C65.583,209.938 73.646,218 83.583,218 C93.521,218 101.583,209.938 101.583,200 z M148.083,211.25 L148.083,188.75 C148.083,185.023 145.06,182 141.333,182 L118.833,182 C115.107,182 112.083,185.023 112.083,188.75 L112.083,211.25 C112.083,214.977 115.107,218 118.833,218 L131.583,218 L131.583,203.75 L126.333,203.75 L126.333,198.5 L131.583,198.5 L131.583,194.609 C131.583,189.969 134.466,187.437 138.615,187.437 C140.583,187.437 142.083,187.578 142.833,187.648 L142.833,192.5 L139.74,192.523 C137.49,192.523 136.833,193.578 136.833,195.148 L136.833,198.5 L142.294,198.5 L141.591,203.75 L136.833,203.75 L136.833,218 L141.333,218 C145.06,218 148.083,214.977 148.083,211.25 z M188.583,193.297 C187.927,194.305 187.083,195.172 186.122,195.852 C186.146,196.062 186.146,196.273 186.146,196.484 C186.146,203 181.177,210.5 172.13,210.5 C169.341,210.5 166.763,209.68 164.583,208.297 C164.958,208.344 165.357,208.367 165.755,208.367 C168.076,208.367 170.185,207.57 171.872,206.258 C169.716,206.211 167.911,204.781 167.279,202.836 C167.583,202.883 167.888,202.93 168.193,202.93 C168.638,202.93 168.966,202.859 169.388,202.742 C167.138,202.297 165.333,200.305 165.333,197.914 C165.333,197.891 165.333,197.867 165.333,197.867 C166.083,198.219 166.857,198.453 167.677,198.477 C166.341,197.586 165.544,196.086 165.544,194.375 C165.544,193.484 165.802,192.617 166.224,191.891 C168.661,194.891 172.294,196.836 176.396,197.047 C176.302,196.695 176.279,196.297 176.279,195.922 C176.279,193.203 178.482,191 181.201,191 C182.607,191 183.896,191.586 184.786,192.547 C185.911,192.336 186.966,191.914 187.927,191.352 C187.552,192.5 186.779,193.484 185.747,194.094 C186.755,193.953 187.693,193.695 188.583,193.297 z M194.583,188.75 C194.583,185.023 191.56,182 187.833,182 L165.333,182 C161.607,182 158.583,185.023 158.583,188.75 L158.583,211.25 C158.583,214.977 161.607,218 165.333,218 L187.833,218 C191.56,218 194.583,214.977 194.583,211.25 z M224.513,207.547 C224.513,205.531 222.521,204.312 221.091,203.281 C220.833,203.234 220.599,203.234 220.365,203.234 C217.927,203.234 214.341,204.008 214.341,207.078 C214.341,209.984 217.458,211.039 219.872,211.039 C222.099,211.039 224.513,210.125 224.513,207.547 z M222.779,194.773 C222.779,192.57 221.49,188.844 218.818,188.844 C216.826,188.844 215.911,190.531 215.911,192.289 C215.911,194.516 217.177,198.031 219.849,198.031 C221.771,198.031 222.779,196.555 222.779,194.773 z M225.263,188.75 L223.318,188.75 C224.654,190.109 225.544,191.141 225.544,193.203 C225.544,197.07 222.029,197.539 222.029,199.437 C222.029,201.383 226.622,202.133 226.622,206.281 C226.622,210.57 221.958,212.398 218.349,212.398 C215.513,212.398 211.552,211.25 211.552,207.758 C211.552,206.094 212.607,204.687 213.99,203.82 C215.724,202.742 217.997,202.484 220.013,202.344 C219.474,201.664 219.076,201.031 219.076,200.141 C219.076,199.695 219.193,199.297 219.38,198.875 C219.052,198.922 218.701,198.945 218.372,198.945 C215.466,198.945 213.146,196.836 213.146,193.883 C213.146,189.617 217.247,187.25 221.115,187.25 L227.326,187.25 z M232.083,199.25 L232.083,203 L230.583,203 L230.583,199.25 L227.583,199.25 L227.583,197.75 L230.583,197.75 L230.583,194.75 L232.083,194.75 L232.083,197.75 L235.083,197.75 L235.083,199.25 z M241.083,188.75 C241.083,185.023 238.06,182 234.333,182 L211.833,182 C208.107,182 205.083,185.023 205.083,188.75 L205.083,211.25 C205.083,214.977 208.107,218 211.833,218 L234.333,218 C238.06,218 241.083,214.977 241.083,211.25 z M283.505,212.422 C283.505,213.219 282.872,213.852 282.076,213.852 L257.021,213.852 C256.224,213.852 255.591,213.219 255.591,212.422 L255.591,197.234 L258.896,197.234 C258.591,198.195 258.427,199.25 258.427,200.305 C258.427,206.305 263.443,211.156 269.607,211.156 C275.794,211.156 280.81,206.305 280.81,200.305 C280.81,199.25 280.646,198.195 280.341,197.234 L283.505,197.234 z M276.849,199.93 C276.849,203.797 273.615,206.937 269.607,206.937 C265.622,206.937 262.388,203.797 262.388,199.93 C262.388,196.062 265.622,192.922 269.607,192.922 C273.615,192.922 276.849,196.062 276.849,199.93 z M283.505,191.492 C283.505,192.383 282.779,193.109 281.888,193.109 L277.81,193.109 C276.919,193.109 276.193,192.383 276.193,191.492 L276.193,187.625 C276.193,186.734 276.919,186.008 277.81,186.008 L281.888,186.008 C282.779,186.008 283.505,186.734 283.505,187.625 z M287.583,186.617 C287.583,184.086 285.497,182 282.966,182 L256.201,182 C253.669,182 251.583,184.086 251.583,186.617 L251.583,213.383 C251.583,215.914 253.669,218 256.201,218 L282.966,218 C285.497,218 287.583,215.914 287.583,213.383 z M310.083,209 C310.083,210.664 308.747,212 307.083,212 C305.419,212 304.083,210.664 304.083,209 C304.083,207.336 305.419,206 307.083,206 C308.747,206 310.083,207.336 310.083,209 z M318.31,211.203 C318.333,211.414 318.24,211.625 318.099,211.766 C317.958,211.906 317.771,212 317.56,212 L314.56,212 C314.161,212 313.833,211.695 313.81,211.297 C313.458,206.492 309.591,202.625 304.786,202.273 C304.388,202.25 304.083,201.922 304.083,201.523 L304.083,198.523 C304.083,198.312 304.177,198.125 304.318,197.984 C304.458,197.844 304.669,197.75 304.88,197.773 C312.146,198.172 317.911,203.937 318.31,211.203 z M327.31,211.227 C327.333,211.438 327.263,211.625 327.099,211.766 C326.958,211.906 326.771,212 326.56,212 L323.56,212 C323.161,212 322.833,211.672 322.81,211.273 C322.458,201.547 314.536,193.625 304.81,193.273 C304.411,193.25 304.083,192.922 304.083,192.523 L304.083,189.523 C304.083,189.312 304.177,189.125 304.318,188.984 C304.458,188.82 304.622,188.75 304.857,188.773 C317.044,189.172 326.911,199.039 327.31,211.227 z M334.083,188.75 C334.083,185.023 331.06,182 327.333,182 L304.833,182 C301.107,182 298.083,185.023 298.083,188.75 L298.083,211.25 C298.083,214.977 301.107,218 304.833,218 L327.333,218 C331.06,218 334.083,214.977 334.083,211.25 z M386.583,195.641 C385.88,196.414 385.083,197.094 384.24,197.68 C380.326,200.328 376.388,203 372.568,205.766 C370.599,207.219 368.161,209 365.607,209 L365.583,209 L365.56,209 C363.005,209 360.568,207.219 358.599,205.766 C354.779,202.977 350.841,200.328 346.951,197.68 C346.083,197.094 345.286,196.414 344.583,195.641 L344.583,214.25 C344.583,216.312 346.271,218 348.333,218 L382.833,218 C384.896,218 386.583,216.312 386.583,214.25 z M386.583,188.75 C386.583,186.687 384.872,185 382.833,185 L348.333,185 C345.826,185 344.583,186.969 344.583,189.266 C344.583,191.398 346.951,194.047 348.615,195.172 C352.247,197.703 355.927,200.234 359.56,202.789 C361.083,203.844 363.661,206 365.56,206 L365.583,206 L365.607,206 C367.505,206 370.083,203.844 371.607,202.789 C375.24,200.234 378.919,197.703 382.576,195.172 C384.638,193.742 386.583,191.375 386.583,188.75 z M427.201,200 C427.201,200.398 427.06,200.773 426.779,201.055 L424.646,203.187 L416.161,211.672 C415.88,211.953 415.505,212.094 415.107,212.094 C414.708,212.094 414.333,211.953 414.052,211.672 L411.919,209.539 C411.638,209.258 411.474,208.883 411.474,208.484 C411.474,208.086 411.638,207.711 411.919,207.43 L416.349,203 L404.583,203 C403.763,203 403.083,202.32 403.083,201.5 L403.083,198.5 C403.083,197.68 403.763,197 404.583,197 L416.349,197 L411.919,192.57 C411.638,192.289 411.497,191.914 411.497,191.516 C411.497,191.117 411.638,190.742 411.919,190.461 L414.052,188.328 C414.333,188.047 414.708,187.906 415.107,187.906 C415.505,187.906 415.88,188.047 416.161,188.328 L424.646,196.812 L426.779,198.945 C427.06,199.227 427.201,199.602 427.201,200 z M433.083,200 C433.083,190.062 425.021,182 415.083,182 C405.146,182 397.083,190.062 397.083,200 C397.083,209.938 405.146,218 415.083,218 C425.021,218 433.083,209.938 433.083,200 z" fill-opacity="0" stroke="#CCCCCC" stroke-width="0.5"/>
    </g>
    <path d="M406,0 L406,13 C406,19.627 400.941,25 394.7,25 L102.3,25 C96.059,25 91,19.627 91,13 L91,0 L406,0 z" fill="#34495E"/>
    <text transform="matrix(1, 0, 0, 1, 148.493, 12.5)">
      <tspan x="-41.493" y="4" font-family="Helvetica" font-size="12" fill="#FFFFFF">Skater's Corner</tspan>
    </text>
    <text transform="matrix(1, 0, 0, 1, 378.679, 12.5)">
      <tspan x="-10.286" y="8.5" font-family="FontAwesome" font-size="24" fill="#ECF0F1"></tspan>
    </text>
  </g>
</svg>
